<?xml version="1.0" standalone="no"?>
<!DOCTYPE svg PUBLIC "-//W3C//DTD SVG 20010904//EN"
 "http://www.w3.org/TR/2001/REC-SVG-20010904/DTD/svg10.dtd">
<svg version="1.0" xmlns="http://www.w3.org/2000/svg"
 width="920.000000pt" height="556.000000pt" viewBox="0 0 920.000000 556.000000"
 preserveAspectRatio="xMidYMid meet">

<g transform="translate(0.000000,556.000000) scale(0.100000,-0.100000)"
fill="#000000" stroke="none">
<path d="M4490 4671 c-80 -26 -118 -48 -177 -103 -100 -95 -138 -191 -136
-343 2 -130 -8 -166 -49 -185 -71 -33 -100 -129 -58 -197 10 -18 37 -43 59
-57 42 -27 54 -53 66 -139 4 -27 18 -78 31 -114 19 -50 24 -81 22 -127 l-3
-61 -139 -7 -139 -7 -67 55 c-75 60 -187 116 -268 133 -78 16 -226 13 -305 -8
l-67 -17 -58 28 c-87 43 -175 61 -258 55 -71 -5 -163 -37 -185 -63 -83 -101
146 326 256 474 64 88 76 92 122 41 39 -43 86 -69 124 -69 12 0 36 -12 54 -27
127 -106 171 -118 229 -59 19 18 58 42 87 52 67 24 109 63 109 100 0 17 -15
51 -35 80 -23 33 -39 70 -44 104 -13 79 -29 89 -158 104 -60 7 -114 16 -120
19 -5 3 -54 13 -108 22 -107 17 -219 9 -273 -19 -32 -17 -82 -69 -141 -148
-53 -71 -79 -88 -161 -105 -83 -17 -281 -114 -385 -188 -197 -142 -406 -338
-463 -434 -37 -64 -37 -158 0 -222 35 -58 246 -264 327 -319 148 -99 365 -183
571 -220 112 -20 538 -47 566 -36 11 4 14 -14 14 -93 0 -278 104 -551 293
-772 l54 -62 2 -76 c5 -212 48 -417 117 -551 51 -100 62 -109 181 -146 389
-124 858 -123 1249 1 106 33 110 36 141 82 49 74 80 148 107 263 30 124 46
247 46 346 0 68 2 75 35 116 96 118 139 180 180 259 87 168 135 359 135 538
l0 96 77 -1 c459 -5 824 85 1089 268 81 55 292 266 319 318 24 45 25 153 3
195 -50 92 -228 266 -428 416 -126 95 -335 203 -430 222 -82 17 -108 34 -161
105 -59 79 -109 131 -141 148 -54 28 -166 36 -273 19 -54 -9 -103 -19 -108
-22 -6 -3 -60 -12 -120 -19 -129 -15 -145 -25 -158 -104 -5 -34 -21 -71 -44
-104 -63 -91 -44 -132 85 -186 30 -12 66 -35 81 -51 50 -54 100 -40 224 64 18
15 43 27 55 27 36 0 87 29 125 72 21 23 42 37 50 34 22 -8 99 -111 164 -221
63 -105 191 -345 185 -345 -2 0 -20 11 -40 25 -108 73 -272 72 -426 -3 l-58
-28 -67 17 c-85 22 -236 24 -321 4 -83 -20 -187 -73 -260 -134 l-60 -50 -138
7 -139 7 -3 61 c-2 46 3 78 23 129 14 37 28 93 32 124 9 80 17 97 63 126 107
68 106 201 -2 257 -43 23 -47 41 -46 198 1 76 -4 107 -22 155 -83 219 -309
341 -510 276z"/>
</g>
</svg>
