<?xml version="1.0" standalone="no"?>
<!DOCTYPE svg PUBLIC "-//W3C//DTD SVG 20010904//EN"
 "http://www.w3.org/TR/2001/REC-SVG-20010904/DTD/svg10.dtd">
<svg version="1.0" xmlns="http://www.w3.org/2000/svg"
 width="920.000000pt" height="512.000000pt" viewBox="0 0 920.000000 512.000000"
 preserveAspectRatio="xMidYMid meet">

<g transform="translate(0.000000,512.000000) scale(0.100000,-0.100000)"
fill="#000000" stroke="none">
<path d="M2905 4564 c-272 -8 -624 -36 -699 -55 -22 -6 -59 -30 -87 -56 -143
-133 -75 -366 117 -407 18 -4 117 1 220 11 155 15 283 18 709 18 286 0 528 -3
537 -7 15 -6 16 -84 18 -1024 0 -621 5 -1035 11 -1061 41 -187 273 -250 406
-111 66 68 63 31 63 853 0 457 4 745 9 745 53 0 308 -79 392 -121 193 -96 316
-268 440 -612 l39 -109 -22 -31 c-12 -18 -79 -108 -148 -202 -183 -247 -436
-601 -629 -878 -310 -448 -302 -434 -303 -547 0 -91 30 -165 91 -227 75 -76
127 -98 236 -97 101 0 155 18 218 74 20 17 123 156 229 308 201 290 483 687
678 954 l115 157 63 2 c34 2 71 3 83 3 17 1 94 -127 438 -719 230 -396 434
-738 454 -760 70 -81 193 -125 297 -105 114 22 197 85 248 190 38 78 38 191 1
270 -14 30 -251 442 -526 915 -399 687 -505 877 -528 945 -321 974 -707 1360
-1580 1575 -82 21 -193 41 -245 46 -52 4 -162 14 -245 23 -283 28 -815 48
-1100 40z"/>
<path d="M2923 3865 c-174 -47 -326 -194 -377 -366 -22 -71 -22 -217 -1 -289
37 -124 139 -251 255 -317 79 -45 159 -65 255 -65 148 0 264 50 372 159 207
209 204 534 -7 742 -129 127 -328 181 -497 136z"/>
</g>
</svg>
