<svg xmlns="http://www.w3.org/2000/svg" viewBox="0 0 487.2 487.2">
  <path d="M486.6 186.8a13.6 13.6 0 0 0-11-9.2l-152-21.6-68.3-137.5a13.5 13.5 0 0 0-24.2.1l-67.5 138-152 22.5c-5.1.8-9.3 4.3-11 9.2s-.1 10.3 3.6 13.8l110.3 107L89 460.3a13.3 13.3 0 0 0 5.4 13.2 13.4 13.4 0 0 0 14.2 1l135.7-71.9 136 71.1a13.6 13.6 0 0 0 19.3-15.1l-26.2-150.5L483 200.7c3.9-3.6 5.2-9 3.6-13.9zM349.6 294a13.3 13.3 0 0 0-3.8 12l22.9 131.3-118.2-61.7c-4-2-8.6-2-12.6 0L120 438l22-131.5c.8-4.4-.6-8.8-3.8-11.9l-95.6-92.8 131.9-19.6c4.4-.7 8.2-3.4 10-7.4L243.4 55l59.4 119.4c2 4 5.8 6.7 10.2 7.4l132 18.8-95.3 93.3z"/>
</svg>
