<?xml version="1.0" standalone="no"?>
<!DOCTYPE svg PUBLIC "-//W3C//DTD SVG 20010904//EN"
 "http://www.w3.org/TR/2001/REC-SVG-20010904/DTD/svg10.dtd">
<svg version="1.0" xmlns="http://www.w3.org/2000/svg"
 width="1920.000000pt" height="1920.000000pt" viewBox="0 0 1920.000000 1920.000000"
 preserveAspectRatio="xMidYMid meet">
<metadata>
Created by potrace 1.11, written by Peter Selinger 2001-2013
</metadata>
<g transform="translate(0.000000,1920.000000) scale(0.100000,-0.100000)"
fill="#000000" stroke="none">
<path d="M9565 16980 c-131 -10 -280 -27 -380 -42 -70 -11 -76 -14 -45 -19 23
-4 7 -7 -50 -8 -89 -1 -203 -22 -400 -73 -63 -16 -137 -36 -165 -43 l-50 -13
55 -4 c50 -4 47 -4 -22 -6 -53 -1 -80 -6 -85 -16 -4 -7 -30 -15 -58 -18 -98
-10 -516 -195 -725 -321 -47 -29 -90 -56 -97 -62 -6 -5 -50 -35 -97 -65 -56
-36 -80 -56 -68 -58 39 -8 34 -22 -9 -22 -33 0 -52 -7 -76 -28 -33 -28 -68
-56 -118 -94 -32 -24 -74 -62 -184 -166 l-66 -63 59 7 c43 5 57 4 52 -5 -4 -6
-33 -11 -66 -11 l-58 0 -69 -77 c-173 -195 -327 -403 -298 -403 9 0 14 -4 10
-10 -3 -5 -12 -7 -20 -4 -7 3 -18 -3 -24 -15 -10 -17 -8 -20 17 -24 23 -3 22
-4 -8 -6 -23 0 -39 -7 -45 -20 -6 -10 -20 -36 -33 -57 -71 -121 -99 -171 -157
-286 -36 -70 -65 -132 -65 -137 0 -5 10 -12 23 -14 17 -3 14 -5 -9 -6 -31 -1
-32 -4 -87 -145 -80 -205 -78 -196 -26 -198 24 -1 60 -3 79 -4 19 -1 50 -2 68
-3 17 0 32 -6 32 -12 0 -11 -201 -6 -219 6 -7 4 -31 -44 -31 -61 0 -1 12 -5
28 -7 27 -4 27 -4 -3 -6 -29 -1 -32 -5 -47 -61 -11 -42 -13 -60 -4 -60 8 0 8
-2 0 -8 -6 -4 -14 -19 -18 -34 -6 -25 -4 -28 21 -28 25 -1 26 -2 10 -11 -10
-6 -24 -8 -31 -6 -17 7 -46 -113 -82 -333 -38 -235 -40 -267 -18 -273 17 -4
16 -5 -2 -6 -19 -1 -22 -9 -27 -68 -32 -348 -33 -871 -3 -1163 9 -80 18 -172
21 -205 3 -33 11 -63 18 -67 7 -4 8 -8 2 -8 -7 0 -9 -15 -7 -35 4 -35 4 -35
56 -35 37 -1 46 -3 35 -10 -9 -5 -31 -8 -49 -5 l-33 4 7 -46 c3 -25 6 -54 6
-64 0 -14 8 -19 28 -20 l27 -1 -30 -8 c-32 -8 -31 -8 55 -16 75 -7 76 -14 2
-14 -66 0 -88 -19 -24 -21 l37 -2 -33 -6 c-18 -3 -33 -9 -32 -13 0 -5 0 -19 0
-33 0 -17 7 -29 23 -35 16 -6 18 -9 5 -9 -14 -1 -16 -7 -11 -33 13 -70 19 -77
70 -81 l48 -3 -47 -2 c-27 -1 -48 -5 -48 -9 0 -15 68 -261 75 -273 4 -7 16 -9
29 -5 33 11 106 13 106 3 0 -4 -13 -8 -29 -8 -17 0 -33 -4 -36 -10 -3 -5 -20
-10 -36 -10 -17 0 -29 -4 -27 -8 2 -4 16 -42 32 -85 19 -52 34 -77 45 -77 13
0 13 -2 2 -9 -10 -7 -6 -27 24 -102 42 -106 50 -119 73 -117 10 1 35 0 57 -1
31 -2 36 -4 20 -10 -11 -5 -38 -6 -59 -3 -22 3 -37 1 -35 -4 50 -106 150 -292
167 -311 12 -13 22 -28 22 -34 0 -5 12 -10 28 -10 l27 -1 -26 -7 -26 -6 66
-101 c61 -93 112 -164 136 -190 6 -6 21 -26 34 -45 l23 -35 70 4 c43 3 74 0
81 -7 8 -8 -7 -11 -56 -11 -37 0 -67 -4 -67 -9 0 -4 18 -28 39 -53 l40 -44 63
4 c44 3 60 1 53 -6 -5 -6 -30 -12 -55 -14 l-45 -3 74 -77 c40 -43 80 -78 89
-78 8 0 13 -3 9 -6 -9 -10 86 -93 106 -94 11 0 15 -5 11 -11 -9 -16 14 -28 56
-30 31 -2 32 -2 7 -6 -27 -4 -25 -7 51 -67 43 -34 131 -97 194 -139 91 -60
124 -77 154 -78 24 -1 30 -3 16 -6 -34 -7 -16 -23 26 -24 28 0 32 -2 17 -8
-15 -6 12 -24 132 -84 123 -62 161 -77 197 -77 26 0 46 -4 46 -10 0 -5 -8 -10
-17 -11 -10 0 34 -21 97 -46 80 -32 129 -46 160 -46 34 1 39 -1 20 -6 -21 -6
-14 -11 50 -30 41 -12 116 -35 167 -51 174 -54 334 -82 507 -86 176 -5 224
-16 101 -24 -64 -4 -73 -7 -45 -12 81 -15 185 -24 188 -16 6 13 32 9 47 -6 14
-14 125 -25 292 -29 40 -1 73 -5 73 -9 0 -3 137 -7 303 -8 262 -1 306 1 317
15 14 17 35 21 24 3 -5 -8 4 -9 32 -5 21 4 62 8 89 8 l50 2 -45 7 -45 7 40 3
c22 1 45 1 50 -1 39 -11 226 13 475 63 80 16 177 35 215 42 39 8 106 23 150
34 44 12 91 23 105 26 14 3 77 19 140 36 63 17 126 34 140 38 l25 6 -25 7
c-20 7 -18 8 15 7 52 -1 87 8 339 93 217 73 368 132 519 202 l87 40 0 828 0
829 -23 1 -22 0 23 11 c15 8 22 20 22 39 0 25 -3 27 -29 24 -16 -2 -42 0 -58
5 -23 7 -19 8 30 9 l57 1 0 180 0 180 -47 -1 c-51 -1 -162 17 -128 20 11 1 55
2 98 1 l77 -1 0 105 0 106 -25 0 c-14 0 -25 5 -25 10 0 6 11 10 25 10 24 0 25
2 25 74 l0 75 -37 4 -38 4 38 1 c24 1 37 7 37 16 0 9 25 20 68 30 243 60 452
156 590 273 l52 45 0 163 0 163 -32 8 -33 8 33 3 c32 4 33 6 30 46 l-3 42
-1550 0 -1550 0 -3 -157 -3 -158 48 -2 c43 -1 44 -2 11 -5 -47 -5 -60 -22 -56
-74 l3 -43 90 -46 c113 -56 203 -96 280 -124 33 -12 65 -24 70 -27 17 -10 176
-57 265 -78 64 -16 291 -51 326 -51 2 0 4 -15 4 -34 0 -19 6 -37 13 -39 10 -4
10 -6 0 -6 -9 -1 -13 -22 -13 -70 0 -46 4 -71 13 -74 10 -4 10 -6 0 -6 -20 -1
-16 -49 5 -54 16 -4 16 -5 0 -6 -16 -1 -17 -31 -18 -395 l0 -395 42 -4 43 -4
-42 -1 -42 -2 -1 -205 c0 -188 2 -205 18 -206 16 0 16 -1 0 -7 -25 -10 -24
-223 1 -234 14 -6 14 -7 -1 -7 -15 -1 -18 -11 -18 -64 l0 -64 56 2 c34 2 51
-1 42 -6 -7 -5 -32 -9 -55 -9 l-43 0 0 -123 0 -123 -30 -26 c-17 -15 -39 -29
-48 -32 -41 -13 -127 -65 -124 -75 1 -6 -12 -11 -32 -11 -18 0 -80 -15 -137
-34 -173 -56 -407 -103 -563 -113 -58 -3 -106 -9 -106 -13 0 -3 -66 -5 -147
-5 -192 2 -205 3 -198 15 4 6 -6 10 -23 10 -69 0 -364 77 -477 125 -94 40
-196 92 -277 142 -48 30 -99 53 -115 54 -24 0 -26 1 -8 9 15 6 4 9 -40 11
l-60 2 45 7 c36 5 41 8 26 15 -11 5 -27 16 -36 24 -9 9 -37 32 -61 51 -127
101 -297 274 -388 395 -29 39 -58 77 -66 87 -7 9 -29 41 -48 71 -30 46 -39 54
-58 50 -15 -4 -20 -3 -15 6 4 6 12 8 18 5 13 -8 10 -1 -27 69 -22 42 -39 61
-65 71 -29 13 -31 15 -12 15 13 1 22 4 20 9 -2 4 -33 68 -69 142 -37 74 -75
157 -85 183 -22 58 -40 67 -132 68 -49 1 -59 3 -37 8 17 4 53 6 82 4 l52 -3
-15 47 c-9 27 -18 56 -21 66 -3 9 -13 17 -22 17 -12 0 -13 2 -4 8 10 6 7 26
-14 88 -14 43 -31 82 -36 86 -6 3 -26 5 -46 3 -20 -1 -45 1 -56 6 -14 5 0 8
43 8 l62 1 -6 28 c-10 39 -21 50 -57 55 l-32 4 33 1 c17 1 32 6 32 11 0 6 -11
56 -25 113 -14 57 -32 141 -40 188 -27 155 -16 139 -98 143 l-72 3 73 2 c65 2
73 4 68 20 -2 9 -8 40 -11 69 -6 49 -8 52 -38 56 l-32 4 33 1 c27 2 32 5 28
20 -16 51 -38 409 -39 630 l-2 253 -30 -5 c-16 -3 -52 -2 -80 3 -49 8 -48 9
31 10 l81 1 2 53 c7 219 12 301 16 305 12 12 4 43 -12 49 -10 4 -21 11 -24 15
-3 5 -52 9 -108 9 -61 0 -111 5 -125 13 -20 10 1 12 124 10 l149 -2 5 37 c3
20 11 79 16 131 10 90 34 253 46 312 4 20 1 27 -13 31 -16 4 -16 5 -1 6 10 0
20 11 23 24 110 471 233 808 391 1079 25 43 43 82 39 88 -3 5 0 10 7 10 8 0
22 14 32 30 21 37 161 226 188 254 l19 21 -108 6 c-120 6 -107 11 35 14 l94 3
39 38 c21 21 39 41 39 45 0 4 -17 10 -37 12 -35 3 -34 4 10 5 39 2 53 8 85 38
l37 36 -40 -6 c-22 -3 -46 -2 -54 3 -8 5 12 11 54 16 60 6 75 12 129 54 157
122 346 226 511 282 66 22 68 24 40 30 -27 6 -25 7 15 8 25 1 106 16 180 35
74 19 180 40 235 47 55 6 104 16 110 21 13 12 245 10 448 -3 95 -7 206 -12
249 -13 42 -1 74 -4 72 -8 -3 -4 4 -6 13 -6 38 2 252 -50 290 -71 21 -11 48
-74 126 -291 81 -224 72 -210 125 -210 25 0 42 -3 39 -7 -4 -3 -23 -6 -43 -5
-23 1 -34 -3 -32 -11 2 -7 19 -56 38 -109 l35 -98 38 0 c20 0 37 -5 37 -11 0
-7 -12 -9 -36 -4 -33 6 -36 4 -30 -12 4 -10 23 -61 42 -113 20 -52 42 -113 51
-135 16 -41 30 -80 56 -150 l15 -40 68 -5 69 -5 -59 -7 c-32 -4 -60 -8 -62
-10 -4 -5 51 -166 66 -190 5 -10 10 -25 10 -33 0 -8 4 -15 8 -15 4 0 8 -8 9
-17 0 -10 11 -48 24 -84 l24 -67 70 -4 c39 -3 80 -10 90 -16 16 -9 7 -11 -45
-7 -36 2 -75 7 -87 11 l-23 6 16 -46 c11 -32 22 -47 37 -51 12 -2 119 -3 237
-2 l215 2 22 85 c25 92 93 413 93 435 0 10 -19 15 -72 18 l-73 3 78 2 c46 1
77 6 77 13 0 7 -33 9 -97 6 -54 -3 -116 -1 -138 3 -22 4 -31 8 -19 9 11 0 24
5 30 11 5 5 24 6 49 0 61 -14 175 -13 175 3 1 6 5 32 9 55 l9 44 -67 -2 c-94
-4 -145 -1 -137 7 3 4 19 8 35 9 16 1 42 5 60 9 20 4 31 3 31 -4 0 -6 17 -11
39 -11 44 0 45 1 61 150 5 41 12 98 16 127 6 49 5 52 -17 56 -23 4 -23 4 2 6
26 1 26 2 38 119 54 516 53 486 16 493 l-30 5 31 8 31 7 7 91 c10 148 8 238
-6 239 -7 1 -31 0 -53 -1 -22 -1 -36 2 -32 6 4 5 20 9 35 10 77 3 72 -1 72 64
0 51 -3 60 -17 58 -40 -3 -57 5 -23 11 25 4 35 11 35 25 0 10 -7 23 -15 27
-50 29 -170 76 -302 120 -121 40 -161 50 -194 45 -22 -3 -54 -1 -70 4 -27 8
-26 8 16 10 45 1 44 1 -30 21 -229 61 -615 120 -1060 160 -247 22 -956 34
-1145 19z m445 -14 c0 -8 -51 -13 -56 -5 -3 5 9 9 25 9 17 0 31 -2 31 -4z
m264 -6 c-7 -7 -19 -7 -35 -1 -23 9 -22 10 11 10 23 1 31 -2 24 -9z m86 1 c0
-16 -19 -23 -40 -16 -30 10 -24 25 10 25 17 0 30 -4 30 -9z m-170 -21 c0 -5
-14 -7 -32 -3 -46 8 -48 13 -5 13 21 0 37 -4 37 -10z m197 -36 c-3 -3 -12 -4
-19 -1 -8 3 -5 6 6 6 11 1 17 -2 13 -5z m60 0 c-3 -3 -12 -4 -19 -1 -8 3 -5 6
6 6 11 1 17 -2 13 -5z m76 -1 c-13 -2 -33 -2 -45 0 -13 2 -3 4 22 4 25 0 35
-2 23 -4z m-278 -13 c4 -7 -8 -8 -37 -4 -57 9 -61 14 -10 14 22 0 44 -5 47
-10z m52 -6 c-3 -3 -12 -4 -19 -1 -8 3 -5 6 6 6 11 1 17 -2 13 -5z m-977 -14
c0 -13 -11 -13 -30 0 -12 8 -11 10 8 10 12 0 22 -4 22 -10z m1309 -19 c8 -5 9
-11 3 -15 -6 -3 -13 -3 -15 1 -3 5 -52 7 -108 6 -57 -1 -110 2 -119 7 -9 6 29
9 105 10 66 0 126 -4 134 -9z m-746 -8 c3 -5 -56 -9 -131 -9 -98 -1 -120 0
-77 6 86 10 203 11 208 3z m1187 -7 c8 -2 -28 -4 -80 -4 -56 1 -81 3 -60 7 33
6 107 4 140 -3z m-980 -11 c0 -8 -3 -15 -6 -15 -3 0 -12 7 -20 15 -14 13 -13
15 5 15 12 0 21 -6 21 -15z m85 -14 c17 -3 25 -9 19 -13 -6 -4 -30 -1 -55 7
-46 14 -22 19 36 6z m238 -28 c-7 -2 -21 -2 -30 0 -10 3 -4 5 12 5 17 0 24 -2
18 -5z m462 -3 c-11 -5 -27 -9 -35 -9 -9 0 -8 4 5 9 11 5 27 9 35 9 9 0 8 -4
-5 -9z m218 3 c-13 -2 -35 -2 -50 0 -16 2 -5 4 22 4 28 0 40 -2 28 -4z m-2243
-18 c0 -17 -35 -21 -45 -5 -4 6 -15 8 -26 5 -11 -4 -19 -2 -19 4 0 6 20 11 45
11 33 0 45 -4 45 -15z m2610 5 c0 -5 -8 -10 -17 -10 -15 0 -16 2 -3 10 19 12
20 12 20 0z m-2560 -4 c0 -3 -4 -8 -10 -11 -5 -3 -10 -1 -10 4 0 6 5 11 10 11
6 0 10 -2 10 -4z m755 -6 c-3 -5 -12 -7 -20 -3 -21 7 -19 13 6 13 11 0 18 -4
14 -10z m2082 4 c-3 -3 -12 -4 -19 -1 -8 3 -5 6 6 6 11 1 17 -2 13 -5z m-1999
-11 c-10 -2 -26 -2 -35 0 -10 3 -2 5 17 5 19 0 27 -2 18 -5z m-1265 -10 c-7
-2 -21 -2 -30 0 -10 3 -4 5 12 5 17 0 24 -2 18 -5z m1467 3 c0 -3 -4 -8 -10
-11 -5 -3 -10 -1 -10 4 0 6 5 11 10 11 6 0 10 -2 10 -4z m833 -3 c-7 -2 -21
-2 -30 0 -10 3 -4 5 12 5 17 0 24 -2 18 -5z m-1225 -20 c-10 -2 -26 -2 -35 0
-10 3 -2 5 17 5 19 0 27 -2 18 -5z m-875 -10 c-7 -2 -21 -2 -30 0 -10 3 -4 5
12 5 17 0 24 -2 18 -5z m2265 0 c-16 -2 -40 -2 -55 0 -16 2 -3 4 27 4 30 0 43
-2 28 -4z m187 -3 c13 -6 -6 -9 -58 -8 -42 0 -80 4 -83 9 -7 11 114 10 141 -1z
m-2348 -6 c-3 -3 -12 -4 -19 -1 -8 3 -5 6 6 6 11 1 17 -2 13 -5z m183 -14 c0
-6 -27 -10 -61 -10 -37 0 -58 4 -54 10 3 6 31 10 61 10 30 0 54 -4 54 -10z
m967 -7 c-20 -2 -52 -2 -70 0 -17 2 0 4 38 4 39 0 53 -2 32 -4z m378 -3 c3 -5
2 -10 -4 -10 -5 0 -13 5 -16 10 -3 6 -2 10 4 10 5 0 13 -4 16 -10z m-2008 -6
c-3 -3 -12 -4 -19 -1 -8 3 -5 6 6 6 11 1 17 -2 13 -5z m1816 -1 c-7 -2 -19 -2
-25 0 -7 3 -2 5 12 5 14 0 19 -2 13 -5z m475 -10 c-10 -2 -28 -2 -40 0 -13 2
-5 4 17 4 22 1 32 -1 23 -4z m-1601 -19 c-3 -3 -12 -4 -19 -1 -8 3 -5 6 6 6
11 1 17 -2 13 -5z m656 -1 c-13 -2 -33 -2 -45 0 -13 2 -3 4 22 4 25 0 35 -2
23 -4z m114 1 c-3 -3 -12 -4 -19 -1 -8 3 -5 6 6 6 11 1 17 -2 13 -5z m1923 -4
c0 -5 -4 -10 -10 -10 -5 0 -10 5 -10 10 0 6 5 10 10 10 6 0 10 -4 10 -10z m44
1 c4 -5 -3 -7 -14 -4 -23 6 -26 13 -6 13 8 0 17 -4 20 -9z m-3059 -16 c-55 -7
-112 -16 -126 -20 -34 -9 -49 12 -17 24 13 5 73 9 133 9 l110 0 -100 -13z
m-290 -16 c-4 -5 -36 -9 -73 -8 -47 1 -59 3 -42 9 37 11 122 11 115 -1z m1962
5 c-3 -3 -12 -4 -19 -1 -8 3 -5 6 6 6 11 1 17 -2 13 -5z m46 -1 c-7 -2 -19 -2
-25 0 -7 3 -2 5 12 5 14 0 19 -2 13 -5z m104 1 c-3 -3 -12 -4 -19 -1 -8 3 -5
6 6 6 11 1 17 -2 13 -5z m40 0 c-3 -3 -12 -4 -19 -1 -8 3 -5 6 6 6 11 1 17 -2
13 -5z m-2080 -10 c-3 -3 -12 -4 -19 -1 -8 3 -5 6 6 6 11 1 17 -2 13 -5z
m1670 0 c-3 -3 -12 -4 -19 -1 -8 3 -5 6 6 6 11 1 17 -2 13 -5z m381 -11 c-10
-2 -28 -2 -40 0 -13 2 -5 4 17 4 22 1 32 -1 23 -4z m995 -10 c-7 -2 -21 -2
-30 0 -10 3 -4 5 12 5 17 0 24 -2 18 -5z m-3135 -10 c-10 -2 -28 -2 -40 0 -13
2 -5 4 17 4 22 1 32 -1 23 -4z m1452 -3 c0 -5 -7 -10 -16 -10 -8 0 -12 5 -9
10 3 6 10 10 16 10 5 0 9 -4 9 -10z m1271 0 c-13 -6 -42 -8 -64 -6 -45 5 -70
-1 -60 -17 4 -6 0 -8 -10 -4 -8 3 -55 9 -104 14 l-88 8 60 5 c124 10 291 10
266 0z m-1506 -10 c3 -5 1 -10 -4 -10 -6 0 -11 5 -11 10 0 6 2 10 4 10 3 0 8
-4 11 -10z m992 -26 c-3 -3 -12 -4 -19 -1 -8 3 -5 6 6 6 11 1 17 -2 13 -5z
m1641 -1 c-10 -2 -28 -2 -40 0 -13 2 -5 4 17 4 22 1 32 -1 23 -4z m-3321 -9
c-3 -3 -12 -4 -19 -1 -8 3 -5 6 6 6 11 1 17 -2 13 -5z m2468 -4 c14 -6 -2 -8
-50 -8 -52 0 -62 2 -40 8 40 10 66 10 90 0z m-3242 -7 c-7 -2 -21 -2 -30 0
-10 3 -4 5 12 5 17 0 24 -2 18 -5z m2832 -2 c-15 -13 -85 -23 -85 -12 0 11 23
18 65 20 17 1 25 -3 20 -8z m95 -1 c8 -5 11 -12 7 -16 -4 -4 -15 0 -24 9 -18
18 -8 23 17 7z m-1880 -26 c0 -2 -9 -4 -21 -4 -11 0 -18 4 -14 10 5 8 35 3 35
-6z m47 10 c-3 -3 -12 -4 -19 -1 -8 3 -5 6 6 6 11 1 17 -2 13 -5z m661 -1
c-10 -2 -26 -2 -35 0 -10 3 -2 5 17 5 19 0 27 -2 18 -5z m-1393 -13 c-27 -12
-35 -12 -35 0 0 6 12 10 28 9 24 0 25 -1 7 -9z m980 0 c4 -6 -10 -10 -35 -10
-25 0 -39 4 -35 10 3 6 19 10 35 10 16 0 32 -4 35 -10z m1055 0 c0 -13 -20
-13 -40 0 -12 8 -9 10 13 10 15 0 27 -4 27 -10z m469 -10 c-19 -5 -57 -5 -85
-1 -45 8 -42 9 36 9 67 0 78 -2 49 -8z m216 0 c3 -6 -4 -10 -17 -10 -18 0 -20
2 -8 10 19 12 18 12 25 0z m135 0 c19 -6 10 -8 -35 -9 -42 0 -56 2 -45 9 17
11 45 11 80 0z m430 0 c11 -7 4 -10 -25 -9 -31 0 -36 2 -20 9 26 11 28 11 45
0z m-2423 -6 c-3 -3 -12 -4 -19 -1 -8 3 -5 6 6 6 11 1 17 -2 13 -5z m1743 -9
c15 -18 -1 -20 -19 -2 -11 10 -14 10 -18 0 -6 -18 -20 -16 -20 2 0 9 9 15 22
15 13 0 28 -7 35 -15z m-2495 -15 c-3 -5 -13 -10 -21 -10 -8 0 -12 5 -9 10 3
6 13 10 21 10 8 0 12 -4 9 -10z m933 -7 c-26 -2 -71 -2 -100 0 -29 2 -8 3 47
3 55 0 79 -1 53 -3z m-680 -10 c-10 -2 -26 -2 -35 0 -10 3 -2 5 17 5 19 0 27
-2 18 -5z m3060 0 c-16 -2 -40 -2 -55 0 -16 2 -3 4 27 4 30 0 43 -2 28 -4z
m139 1 c-3 -3 -12 -4 -19 -1 -8 3 -5 6 6 6 11 1 17 -2 13 -5z m-1442 -14 c3
-5 -1 -10 -10 -10 -9 0 -13 5 -10 10 3 6 8 10 10 10 2 0 7 -4 10 -10z m315 2
c0 -11 -186 -9 -196 1 -4 4 38 7 94 7 56 0 102 -4 102 -8z m1250 -2 c-18 -12
-30 -13 -30 -2 0 4 10 9 22 9 18 2 20 0 8 -7z m-4037 -7 c-13 -2 -35 -2 -50 0
-16 2 -5 4 22 4 28 0 40 -2 28 -4z m3565 -10 c-21 -2 -57 -2 -80 0 -24 2 -7 4
37 4 44 0 63 -2 43 -4z m-2651 -9 c-3 -3 -12 -4 -19 -1 -8 3 -5 6 6 6 11 1 17
-2 13 -5z m-1029 -11 c-10 -2 -26 -2 -35 0 -10 3 -2 5 17 5 19 0 27 -2 18 -5z
m535 0 c-7 -2 -21 -2 -30 0 -10 3 -4 5 12 5 17 0 24 -2 18 -5z m50 0 c-7 -2
-19 -2 -25 0 -7 3 -2 5 12 5 14 0 19 -2 13 -5z m3438 -11 c-7 -2 -18 1 -23 6
-8 8 -4 9 13 5 13 -4 18 -8 10 -11z m-1531 -2 c0 -5 -24 -10 -52 -9 -39 0 -48
3 -33 9 28 12 85 12 85 0z m370 0 c0 -5 -9 -10 -21 -10 -11 0 -17 5 -14 10 3
6 13 10 21 10 8 0 14 -4 14 -10z m58 3 c-10 -2 -26 -2 -35 0 -10 3 -2 5 17 5
19 0 27 -2 18 -5z m-3052 -14 c-20 -12 -176 -18 -176 -7 0 4 39 9 88 11 48 1
92 4 97 5 6 1 2 -3 -9 -9z m2674 -4 c-7 -8 -22 -14 -34 -14 -17 1 -17 2 -3 6
9 2 17 9 17 14 0 5 7 9 16 9 14 0 14 -3 4 -15z m1185 5 c-4 -6 -54 -9 -123 -8
-94 1 -106 3 -62 8 91 11 192 11 185 0z m-4080 -10 c22 -6 14 -7 -28 -5 -33 2
-62 6 -65 9 -8 8 57 5 93 -4z m1033 3 c-10 -2 -26 -2 -35 0 -10 3 -2 5 17 5
19 0 27 -2 18 -5z m622 -14 c-14 -4 -52 -7 -84 -8 -82 -1 -60 17 24 21 72 3
98 -2 60 -13z m978 4 c-16 -2 -40 -2 -55 0 -16 2 -3 4 27 4 30 0 43 -2 28 -4z
m-1601 -27 c4 -3 -28 -6 -71 -6 -42 0 -75 3 -73 8 6 8 136 7 144 -2z m70 8
c-3 -3 -12 -4 -19 -1 -8 3 -5 6 6 6 11 1 17 -2 13 -5z m-994 -21 c-13 -2 -35
-2 -50 0 -16 2 -5 4 22 4 28 0 40 -2 28 -4z m1945 -10 c-21 -2 -57 -2 -80 0
-24 2 -7 4 37 4 44 0 63 -2 43 -4z m690 0 c-10 -2 -28 -2 -40 0 -13 2 -5 4 17
4 22 1 32 -1 23 -4z m-2295 -10 c-13 -2 -33 -2 -45 0 -13 2 -3 4 22 4 25 0 35
-2 23 -4z m427 -5 c0 -4 -7 -8 -15 -8 -8 0 -15 4 -15 8 0 5 7 9 15 9 8 0 15
-4 15 -9z m3665 -18 c-11 -5 -27 -9 -35 -9 -13 -1 -13 0 0 9 8 5 24 9 35 9
l20 0 -20 -9z m-102 -7 c-7 -2 -21 -2 -30 0 -10 3 -4 5 12 5 17 0 24 -2 18 -5z
m-3833 -13 c0 -5 -6 -10 -14 -10 -8 0 -18 5 -21 10 -3 6 3 10 14 10 12 0 21
-4 21 -10z m63 3 c-7 -2 -19 -2 -25 0 -7 3 -2 5 12 5 14 0 19 -2 13 -5z m197
-3 c19 -12 -42 -12 -80 0 -21 7 -17 8 20 9 25 0 52 -4 60 -9z m990 -10 c-8 -5
-28 -10 -45 -10 -16 0 -37 5 -45 10 -11 7 3 10 45 10 42 0 56 -3 45 -10z
m1260 6 c0 -11 -19 -15 -25 -6 -3 5 1 10 9 10 9 0 16 -2 16 -4z m168 -3 c-10
-2 -28 -2 -40 0 -13 2 -5 4 17 4 22 1 32 -1 23 -4z m998 -8 c25 -19 3 -19 -46
0 l-35 13 31 1 c16 1 39 -6 50 -14z m-3911 -5 c13 -6 15 -9 5 -9 -8 0 -22 4
-30 9 -18 12 -2 12 25 0z m1622 4 c-3 -3 -12 -4 -19 -1 -8 3 -5 6 6 6 11 1 17
-2 13 -5z m-1044 -21 c-13 -2 -33 -2 -45 0 -13 2 -3 4 22 4 25 0 35 -2 23 -4z
m2830 0 c-7 -2 -19 -2 -25 0 -7 3 -2 5 12 5 14 0 19 -2 13 -5z m450 -4 c35 0
46 -3 32 -8 -20 -8 -67 -8 -160 -1 l-50 3 50 7 c28 4 56 5 63 3 8 -1 37 -3 65
-4z m210 4 c-7 -2 -19 -2 -25 0 -7 3 -2 5 12 5 14 0 19 -2 13 -5z m-4656 -14
c-14 -8 -22 -8 -30 0 -8 8 -3 11 19 11 25 -1 27 -2 11 -11z m121 4 c-10 -2
-26 -2 -35 0 -10 3 -2 5 17 5 19 0 27 -2 18 -5z m3680 0 c-10 -2 -28 -2 -40 0
-13 2 -5 4 17 4 22 1 32 -1 23 -4z m-2540 -30 c-10 -2 -28 -2 -40 0 -13 2 -5
4 17 4 22 1 32 -1 23 -4z m139 1 c-3 -3 -12 -4 -19 -1 -8 3 -5 6 6 6 11 1 17
-2 13 -5z m-1484 -11 c-7 -2 -21 -2 -30 0 -10 3 -4 5 12 5 17 0 24 -2 18 -5z
m4264 -9 c-3 -3 -12 -4 -19 -1 -8 3 -5 6 6 6 11 1 17 -2 13 -5z m236 -11 c-7
-2 -21 -2 -30 0 -10 3 -4 5 12 5 17 0 24 -2 18 -5z m-4223 -13 c0 -5 -4 -10
-9 -10 -6 0 -13 5 -16 10 -3 6 1 10 9 10 9 0 16 -4 16 -10z m53 -7 c-7 -2 -19
-2 -25 0 -7 3 -2 5 12 5 14 0 19 -2 13 -5z m194 -9 c-3 -3 -12 -4 -19 -1 -8 3
-5 6 6 6 11 1 17 -2 13 -5z m1238 -3 c-3 -6 12 -12 32 -14 21 -2 9 -4 -27 -4
-36 0 -54 2 -40 5 23 4 24 5 5 13 -17 7 -16 8 8 8 16 1 26 -3 22 -8z m-1547
-8 c-10 -2 -26 -2 -35 0 -10 3 -2 5 17 5 19 0 27 -2 18 -5z m737 -3 c8 -13
-15 -13 -35 0 -12 8 -11 10 7 10 12 0 25 -4 28 -10z m493 3 c-16 -2 -40 -2
-55 0 -16 2 -3 4 27 4 30 0 43 -2 28 -4z m192 -3 c0 -6 -27 -10 -67 -9 -49 1
-59 3 -38 8 52 12 105 12 105 1z m2317 -6 c-3 -3 -12 -4 -19 -1 -8 3 -5 6 6 6
11 1 17 -2 13 -5z m-3830 -17 c3 -4 -10 -7 -31 -7 -20 0 -35 4 -31 9 6 10 51
8 62 -2z m1241 -22 c-7 -7 -163 -12 -177 -6 -18 7 121 18 157 12 13 -2 22 -5
20 -6z m3459 9 c-3 -3 -12 -4 -19 -1 -8 3 -5 6 6 6 11 1 17 -2 13 -5z m-3804
-11 c-24 -2 -62 -2 -85 0 -24 2 -5 4 42 4 47 0 66 -2 43 -4z m120 0 c-13 -2
-33 -2 -45 0 -13 2 -3 4 22 4 25 0 35 -2 23 -4z m-673 -23 c0 -5 -7 -7 -15 -4
-8 4 -15 8 -15 10 0 2 7 4 15 4 8 0 15 -4 15 -10z m80 0 c-8 -5 -28 -9 -45 -9
-26 0 -27 2 -10 9 11 5 31 9 45 9 20 1 22 -1 10 -9z m4170 0 c13 -8 13 -10 -2
-10 -9 0 -20 5 -23 10 -8 13 5 13 25 0z m-557 -7 c-7 -2 -19 -2 -25 0 -7 3 -2
5 12 5 14 0 19 -2 13 -5z m587 -23 c0 -5 -7 -10 -16 -10 -8 0 -12 5 -9 10 3 6
10 10 16 10 5 0 9 -4 9 -10z m-4174 -15 c29 -15 29 -15 4 -14 -14 0 -56 7 -95
14 l-70 13 66 1 c42 1 78 -5 95 -14z m937 8 c-7 -2 -21 -2 -30 0 -10 3 -4 5
12 5 17 0 24 -2 18 -5z m3162 -3 c-44 -16 -229 -19 -290 -6 -58 14 -54 14 125
14 102 -1 176 -4 165 -8z m-3962 -7 c-7 -2 -19 -2 -25 0 -7 3 -2 5 12 5 14 0
19 -2 13 -5z m84 1 c-3 -3 -12 -4 -19 -1 -8 3 -5 6 6 6 11 1 17 -2 13 -5z
m4090 0 c-3 -3 -12 -4 -19 -1 -8 3 -5 6 6 6 11 1 17 -2 13 -5z m-3357 -14 c12
-8 11 -10 -7 -10 -13 0 -23 5 -23 10 0 13 11 13 30 0z m-717 -7 c-7 -2 -19 -2
-25 0 -7 3 -2 5 12 5 14 0 19 -2 13 -5z m-1088 -13 c-3 -5 -12 -7 -20 -3 -21
7 -19 13 6 13 11 0 18 -4 14 -10z m1522 4 c-3 -3 -12 -4 -19 -1 -8 3 -5 6 6 6
11 1 17 -2 13 -5z m-438 -19 c2 -3 -12 -5 -32 -5 -20 0 -38 4 -42 10 -6 9 64
5 74 -5z m3151 4 c0 -4 -38 -7 -85 -7 -50 0 -83 4 -79 9 7 11 164 9 164 -2z
m-3867 -16 c-23 -2 -64 -2 -90 0 -26 2 -7 3 42 3 50 0 71 -1 48 -3z m1017 -12
c-14 -4 -52 -4 -85 -1 -59 7 -58 7 25 8 51 0 75 -3 60 -7z m3303 -8 c-7 -2
-21 -2 -30 0 -10 3 -4 5 12 5 17 0 24 -2 18 -5z m-3893 -13 c0 -5 -4 -10 -10
-10 -5 0 -10 5 -10 10 0 6 5 10 10 10 6 0 10 -4 10 -10z m93 3 c-7 -2 -19 -2
-25 0 -7 3 -2 5 12 5 14 0 19 -2 13 -5z m3922 -14 c13 -5 -9 -8 -59 -8 -73 -1
-78 0 -60 14 19 15 74 12 119 -6z m194 5 c2 -2 -28 -4 -67 -4 -40 0 -72 4 -72
9 0 8 130 3 139 -5z m-4366 -31 c-13 -2 -33 -2 -45 0 -13 2 -3 4 22 4 25 0 35
-2 23 -4z m57 -3 c-19 -13 -30 -13 -30 0 0 6 10 10 23 10 18 0 19 -2 7 -10z
m793 3 c-7 -2 -21 -2 -30 0 -10 3 -4 5 12 5 17 0 24 -2 18 -5z m-1480 -10 c-7
-2 -19 -2 -25 0 -7 3 -2 5 12 5 14 0 19 -2 13 -5z m1170 0 c-7 -2 -21 -2 -30
0 -10 3 -4 5 12 5 17 0 24 -2 18 -5z m-946 -9 c-3 -3 -12 -4 -19 -1 -8 3 -5 6
6 6 11 1 17 -2 13 -5z m4333 -4 c0 -5 -25 -10 -56 -10 -34 0 -53 4 -49 10 3 6
28 10 56 10 27 0 49 -4 49 -10z m-3723 -6 c-3 -3 -12 -4 -19 -1 -8 3 -5 6 6 6
11 1 17 -2 13 -5z m4084 -5 c-16 -6 -28 -6 -35 1 -7 7 1 10 25 9 32 0 33 -1
10 -10z m-4863 -6 c-10 -2 -26 -2 -35 0 -10 3 -2 5 17 5 19 0 27 -2 18 -5z
m1292 -27 c42 -14 43 -15 14 -15 -44 -1 -94 10 -94 20 0 13 28 11 80 -5z m165
-16 c-7 -12 -52 -12 -80 0 -15 6 -6 9 33 9 33 1 51 -3 47 -9z m3110 -9 c-5
-10 -103 -6 -113 4 -3 3 23 5 57 5 36 0 60 -4 56 -9z m76 -6 c1 -17 -18 -17
-25 0 -4 11 -1 15 10 13 8 -2 15 -7 15 -13z m269 5 c0 -5 -5 -10 -11 -10 -5 0
-7 5 -4 10 3 6 8 10 11 10 2 0 4 -4 4 -10z m-4700 -16 c0 -2 -9 -4 -21 -4 -11
0 -18 4 -14 10 5 8 35 3 35 -6z m4621 6 c10 0 19 -4 19 -9 0 -9 -71 -9 -145
-1 -22 2 -14 5 25 10 30 4 61 5 68 3 8 -2 22 -3 33 -3z m-4724 -12 c-20 -7
-35 -7 -50 0 -18 9 -14 11 28 11 46 -1 48 -1 22 -11z m268 2 c14 -6 7 -8 -27
-7 -27 1 -48 5 -48 9 0 10 49 9 75 -2z m4035 0 c12 -8 9 -10 -13 -10 -16 0
-26 4 -22 10 8 12 16 12 35 0z m-3012 -7 c-10 -2 -26 -2 -35 0 -10 3 -2 5 17
5 19 0 27 -2 18 -5z m3342 -19 c0 -2 -55 -3 -122 -2 l-123 2 90 5 c86 6 155 3
155 -5z m87 0 c-3 -3 -12 -4 -19 -1 -8 3 -5 6 6 6 11 1 17 -2 13 -5z m273 -4
c0 -5 -7 -10 -15 -10 -8 0 -15 5 -15 10 0 6 7 10 15 10 8 0 15 -4 15 -10z
m-3740 -10 c0 -5 -4 -10 -10 -10 -5 0 -10 5 -10 10 0 6 5 10 10 10 6 0 10 -4
10 -10z m-1273 -17 c-20 -2 -52 -2 -70 0 -17 2 0 4 38 4 39 0 53 -2 32 -4z
m-387 -13 c0 -5 -13 -10 -30 -10 -16 0 -30 5 -30 10 0 6 14 10 30 10 17 0 30
-4 30 -10z m37 4 c-3 -3 -12 -4 -19 -1 -8 3 -5 6 6 6 11 1 17 -2 13 -5z m730
-20 c-3 -3 -12 -4 -19 -1 -8 3 -5 6 6 6 11 1 17 -2 13 -5z m876 -1 c-7 -2 -19
-2 -25 0 -7 3 -2 5 12 5 14 0 19 -2 13 -5z m-1673 -13 c0 -5 -4 -10 -10 -10
-5 0 -10 5 -10 10 0 6 5 10 10 10 6 0 10 -4 10 -10z m4547 4 c-3 -3 -12 -4
-19 -1 -8 3 -5 6 6 6 11 1 17 -2 13 -5z m-4441 -11 c-7 -7 -77 -5 -85 2 -2 3
17 5 44 5 27 0 45 -3 41 -7z m484 -29 c0 -2 -21 -4 -47 -3 -32 0 -42 3 -29 8
18 7 76 3 76 -5z m4250 -4 c0 -5 -8 -10 -17 -10 -15 0 -16 2 -3 10 19 12 20
12 20 0z m-3562 -7 c-21 -2 -57 -2 -80 0 -24 2 -7 4 37 4 44 0 63 -2 43 -4z
m177 -3 c18 -8 18 -9 -5 -9 -14 0 -45 4 -70 8 l-45 8 50 1 c28 0 59 -3 70 -8z
m-392 -27 c-7 -2 -19 -2 -25 0 -7 3 -2 5 12 5 14 0 19 -2 13 -5z m160 0 c-7
-2 -21 -2 -30 0 -10 3 -4 5 12 5 17 0 24 -2 18 -5z m3787 -3 c0 -5 -4 -10 -10
-10 -5 0 -10 5 -10 10 0 6 5 10 10 10 6 0 10 -4 10 -10z m-506 -6 c31 -12 15
-22 -36 -21 l-51 1 34 12 c19 7 35 13 36 13 1 1 8 -2 17 -5z m-3881 -21 c-7
-2 -21 -2 -30 0 -10 3 -4 5 12 5 17 0 24 -2 18 -5z m625 -20 c-10 -2 -28 -2
-40 0 -13 2 -5 4 17 4 22 1 32 -1 23 -4z m3317 -2 c-6 -5 -28 -6 -50 -1 l-40
8 50 1 c29 1 45 -3 40 -8z m-4578 -7 c-3 -3 -12 -4 -19 -1 -8 3 -5 6 6 6 11 1
17 -2 13 -5z m116 -1 c-18 -2 -48 -2 -65 0 -18 2 -4 4 32 4 36 0 50 -2 33 -4z
m1337 -3 c0 -5 -14 -10 -31 -10 -17 0 -28 4 -24 10 3 6 17 10 31 10 13 0 24
-4 24 -10z m-1197 -7 c-7 -2 -19 -2 -25 0 -7 3 -2 5 12 5 14 0 19 -2 13 -5z
m1060 0 c-7 -2 -19 -2 -25 0 -7 3 -2 5 12 5 14 0 19 -2 13 -5z m3529 -4 c-15
-6 -30 -5 -40 1 -13 7 -8 9 23 9 35 0 37 -1 17 -10z m361 -1 c-6 -11 -53 -10
-53 1 0 4 13 8 29 7 16 -1 27 -4 24 -8z m-4510 -5 c-7 -2 -19 -2 -25 0 -7 3
-2 5 12 5 14 0 19 -2 13 -5z m-690 -20 c-7 -2 -21 -2 -30 0 -10 3 -4 5 12 5
17 0 24 -2 18 -5z m260 0 c-7 -2 -19 -2 -25 0 -7 3 -2 5 12 5 14 0 19 -2 13
-5z m570 0 c-7 -2 -21 -2 -30 0 -10 3 -4 5 12 5 17 0 24 -2 18 -5z m4520 -10
c-13 -2 -33 -2 -45 0 -13 2 -3 4 22 4 25 0 35 -2 23 -4z m-4826 -10 c-4 -3
-30 -7 -59 -9 -34 -2 -47 1 -37 7 16 10 106 13 96 2z m-120 -9 c-3 -3 -12 -4
-19 -1 -8 3 -5 6 6 6 11 1 17 -2 13 -5z m316 -31 c-13 -2 -33 -2 -45 0 -13 2
-3 4 22 4 25 0 35 -2 23 -4z m379 -5 c-9 -9 -15 -9 -24 0 -9 9 -7 12 12 12 19
0 21 -3 12 -12z m-1069 -15 c-7 -2 -19 -2 -25 0 -7 3 -2 5 12 5 14 0 19 -2 13
-5z m4907 -3 c0 -12 -8 -12 -35 0 -18 8 -17 9 8 9 15 1 27 -3 27 -9z m-4107
-7 c-7 -2 -19 -2 -25 0 -7 3 -2 5 12 5 14 0 19 -2 13 -5z m4517 -13 c0 -5 -2
-10 -4 -10 -3 0 -8 5 -11 10 -3 6 -1 10 4 10 6 0 11 -4 11 -10z m-783 -16 c-3
-3 -12 -4 -19 -1 -8 3 -5 6 6 6 11 1 17 -2 13 -5z m166 -1 c-24 -2 -62 -2 -85
0 -24 2 -5 4 42 4 47 0 66 -2 43 -4z m120 0 c-7 -2 -21 -2 -30 0 -10 3 -4 5
12 5 17 0 24 -2 18 -5z m-4615 -40 c-10 -2 -28 -2 -40 0 -13 2 -5 4 17 4 22 1
32 -1 23 -4z m514 -15 c-9 -9 -15 -9 -24 0 -9 9 -7 12 12 12 19 0 21 -3 12
-12z m148 2 c-36 -12 -72 -12 -65 0 3 6 25 10 48 9 36 -1 38 -2 17 -9z m-203
-6 c-3 -3 -12 -4 -19 -1 -8 3 -5 6 6 6 11 1 17 -2 13 -5z m4280 0 c-3 -3 -12
-4 -19 -1 -8 3 -5 6 6 6 11 1 17 -2 13 -5z m242 -10 c2 -2 -15 -4 -38 -4 -25
0 -40 4 -36 10 5 8 63 3 74 -6z m-5346 -1 c-7 -2 -21 -2 -30 0 -10 3 -4 5 12
5 17 0 24 -2 18 -5z m1571 -8 c-5 -11 -20 -15 -58 -13 l-51 2 48 3 c26 2 45 8
42 14 -4 5 1 9 9 9 10 0 13 -6 10 -15z m-856 -42 c-15 -2 -42 -2 -60 0 -18 2
-6 4 27 4 33 0 48 -2 33 -4z m4209 -19 c-3 -3 -12 -4 -19 -1 -8 3 -5 6 6 6 11
1 17 -2 13 -5z m543 -4 c0 -5 -2 -10 -4 -10 -3 0 -8 5 -11 10 -3 6 -1 10 4 10
6 0 11 -4 11 -10z m-4953 -6 c-3 -3 -12 -4 -19 -1 -8 3 -5 6 6 6 11 1 17 -2
13 -5z m143 2 c0 -11 -19 -15 -25 -6 -3 5 1 10 9 10 9 0 16 -2 16 -4z m97 -7
c-28 -6 -54 -6 -64 -1 -10 6 5 9 48 10 l64 0 -48 -9z m4296 4 c-7 -2 -19 -2
-25 0 -7 3 -2 5 12 5 14 0 19 -2 13 -5z m494 1 c-3 -3 -12 -4 -19 -1 -8 3 -5
6 6 6 11 1 17 -2 13 -5z m-5704 -61 c-7 -2 -21 -2 -30 0 -10 3 -4 5 12 5 17 0
24 -2 18 -5z m5322 -3 c13 -5 -18 -8 -85 -8 -82 1 -94 3 -55 8 72 10 117 10
140 0z m143 3 c-10 -2 -26 -2 -35 0 -10 3 -2 5 17 5 19 0 27 -2 18 -5z m-4251
-19 c-3 -3 -12 -4 -19 -1 -8 3 -5 6 6 6 11 1 17 -2 13 -5z m141 -1 c-10 -2
-28 -2 -40 0 -13 2 -5 4 17 4 22 1 32 -1 23 -4z m3687 -13 c-6 -10 -122 -6
-132 4 -4 3 26 6 66 6 44 0 70 -4 66 -10z m105 -10 c0 -13 -11 -13 -30 0 -12
8 -11 10 8 10 12 0 22 -4 22 -10z m-4557 -18 c3 -4 -10 -7 -29 -8 -19 0 -34 3
-34 8 0 10 57 11 63 0z m417 -22 c0 -5 -15 -10 -32 -10 -25 0 -29 3 -18 10 20
13 50 13 50 0z m400 0 c0 -5 -21 -9 -47 -9 l-48 2 40 7 c22 4 43 8 48 9 4 0 7
-3 7 -9z m3967 -10 c-16 -5 -43 -7 -59 -5 -55 7 -42 15 23 14 52 -1 59 -2 36
-9z m-167 -40 c11 -7 -1 -9 -40 -9 -50 2 -52 2 -20 9 19 4 37 8 40 9 3 0 12
-4 20 -9z m-4913 -6 c-3 -3 -12 -4 -19 -1 -8 3 -5 6 6 6 11 1 17 -2 13 -5z
m66 -1 c-7 -2 -21 -2 -30 0 -10 3 -4 5 12 5 17 0 24 -2 18 -5z m77 -3 c0 -5
-7 -7 -15 -4 -8 4 -15 8 -15 10 0 2 7 4 15 4 8 0 15 -4 15 -10z m4847 4 c-3
-3 -12 -4 -19 -1 -8 3 -5 6 6 6 11 1 17 -2 13 -5z m116 -1 c-7 -2 -21 -2 -30
0 -10 3 -4 5 12 5 17 0 24 -2 18 -5z m-4913 -23 c-14 -4 -50 -8 -80 -8 l-55 1
45 7 c25 4 61 7 80 8 31 0 32 -1 10 -8z m263 3 c-7 -2 -19 -2 -25 0 -7 3 -2 5
12 5 14 0 19 -2 13 -5z m-416 -9 c-3 -3 -12 -4 -19 -1 -8 3 -5 6 6 6 11 1 17
-2 13 -5z m291 -11 c-10 -2 -26 -2 -35 0 -10 3 -2 5 17 5 19 0 27 -2 18 -5z
m79 1 c-3 -3 -12 -4 -19 -1 -8 3 -5 6 6 6 11 1 17 -2 13 -5z m4446 -1 c-7 -2
-19 -2 -25 0 -7 3 -2 5 12 5 14 0 19 -2 13 -5z m47 -9 c0 -2 -7 -4 -15 -4 -8
0 -15 4 -15 10 0 5 7 7 15 4 8 -4 15 -8 15 -10z m145 6 c-75 -12 -113 -12 -95
0 8 5 44 9 80 9 l65 -2 -50 -7z m-4234 -56 c-25 -10 -48 -12 -85 -7 l-51 8 55
6 c30 3 69 6 85 7 l30 1 -34 -15z m4536 10 c-3 -3 -12 -4 -19 -1 -8 3 -5 6 6
6 11 1 17 -2 13 -5z m-5574 -11 c-7 -2 -21 -2 -30 0 -10 3 -4 5 12 5 17 0 24
-2 18 -5z m647 -3 c0 -5 -4 -10 -10 -10 -5 0 -10 5 -10 10 0 6 5 10 10 10 6 0
10 -4 10 -10z m-90 -10 c0 -5 -5 -10 -11 -10 -5 0 -7 5 -4 10 3 6 8 10 11 10
2 0 4 -4 4 -10z m-786 -12 c-7 -11 -42 -10 -49 2 -4 6 5 10 24 8 16 -1 27 -6
25 -10z m969 5 c-13 -2 -35 -2 -50 0 -16 2 -5 4 22 4 28 0 40 -2 28 -4z m324
1 c-3 -3 -12 -4 -19 -1 -8 3 -5 6 6 6 11 1 17 -2 13 -5z m-1037 -40 c0 -2 -26
-3 -57 -3 -44 1 -51 3 -28 8 29 6 85 3 85 -5z m940 6 c0 -5 -9 -10 -21 -10
-11 0 -17 5 -14 10 3 6 13 10 21 10 8 0 14 -4 14 -10z m353 -7 c-7 -2 -19 -2
-25 0 -7 3 -2 5 12 5 14 0 19 -2 13 -5z m3936 -47 c-11 -9 -69 -14 -69 -6 0 6
17 10 37 10 20 0 34 -2 32 -4z m-5532 -22 c-3 -3 -12 -4 -19 -1 -8 3 -5 6 6 6
11 1 17 -2 13 -5z m5808 -14 c-28 -11 -204 -19 -211 -9 -6 10 46 15 151 17 51
0 73 -2 60 -8z m-5231 -10 c-13 -13 -85 -16 -244 -11 -94 4 -105 5 -60 10 114
12 316 13 304 1z m4876 -20 c-20 -13 -63 -13 -55 0 3 6 21 10 38 10 24 0 28
-3 17 -10z m-4553 -6 c-3 -3 -12 -4 -19 -1 -8 3 -5 6 6 6 11 1 17 -2 13 -5z
m303 -4 c0 -5 -9 -10 -20 -10 -11 0 -20 5 -20 10 0 6 9 10 20 10 11 0 20 -4
20 -10z m-169 -9 c-10 -6 -6 -11 15 -19 23 -8 1 -10 -101 -10 -80 0 -120 3
-105 8 14 4 44 8 68 9 26 1 41 5 37 11 -4 6 14 10 47 10 34 0 48 -3 39 -9z
m77 2 c-10 -2 -26 -2 -35 0 -10 3 -2 5 17 5 19 0 27 -2 18 -5z m4405 -30 c-7
-2 -21 -2 -30 0 -10 3 -4 5 12 5 17 0 24 -2 18 -5z m44 1 c-3 -3 -12 -4 -19
-1 -8 3 -5 6 6 6 11 1 17 -2 13 -5z m-4102 -24 c3 -5 36 -10 73 -11 42 -1 58
-4 43 -8 -13 -3 -67 -3 -119 1 -73 6 -98 5 -104 -5 -4 -6 -8 -9 -8 -5 0 3 -3
13 -6 22 -5 14 3 16 54 16 34 0 64 -4 67 -10z m-438 -6 c-3 -3 -12 -4 -19 -1
-8 3 -5 6 6 6 11 1 17 -2 13 -5z m296 -8 c3 -8 3 -17 0 -20 -4 -3 -63 -5 -132
-5 -133 1 -127 16 7 18 40 0 72 5 72 11 0 15 47 12 53 -4z m4107 4 c0 -13 -40
-13 -60 0 -11 7 -5 10 23 10 20 0 37 -4 37 -10z m-4853 -26 c-3 -3 -12 -4 -19
-1 -8 3 -5 6 6 6 11 1 17 -2 13 -5z m211 1 c-7 -7 -97 -9 -105 -2 -3 4 20 7
52 7 32 0 56 -2 53 -5z m689 -22 c-7 -7 -139 -5 -146 3 -2 2 31 4 74 4 43 0
75 -3 72 -7z m3993 -13 c0 -5 -12 -10 -27 -9 l-28 1 25 8 c14 4 26 8 28 9 1 1
2 -3 2 -9z m-5437 -7 c-7 -2 -21 -2 -30 0 -10 3 -4 5 12 5 17 0 24 -2 18 -5z
m61 1 c17 -7 22 -34 6 -34 -5 0 -10 5 -10 10 0 6 -6 10 -14 10 -8 0 -18 5 -21
10 -7 11 15 13 39 4z m313 0 c-3 -3 -12 -4 -19 -1 -8 3 -5 6 6 6 11 1 17 -2
13 -5z m509 -12 c-10 -2 -22 0 -28 6 -6 6 0 7 19 4 21 -5 23 -7 9 -10z m-956
-2 c0 -5 -19 -9 -42 -9 l-43 2 35 7 c19 4 38 8 43 9 4 0 7 -3 7 -9z m546 1 c5
-5 20 -11 34 -14 14 -2 -27 -4 -90 -4 -63 0 -91 2 -62 4 28 2 52 8 52 14 0 12
53 12 66 0z m5114 -21 c12 -8 11 -10 -7 -10 -13 0 -23 5 -23 10 0 13 11 13 30
0z m-5497 -47 c-7 -2 -19 -2 -25 0 -7 3 -2 5 12 5 14 0 19 -2 13 -5z m1196 -9
c2 -2 -14 -4 -37 -4 -29 0 -42 -4 -42 -14 0 -16 -90 -29 -123 -17 -19 7 -15
10 23 15 90 12 94 13 45 15 -27 1 -59 6 -70 11 -12 5 25 6 90 3 61 -3 112 -7
114 -9z m-421 -1 c-10 -2 -28 -2 -40 0 -13 2 -5 4 17 4 22 1 32 -1 23 -4z
m135 0 c-13 -2 -35 -2 -50 0 -16 2 -5 4 22 4 28 0 40 -2 28 -4z m565 0 c-10
-2 -26 -2 -35 0 -10 3 -2 5 17 5 19 0 27 -2 18 -5z m-63 -13 c-3 -5 -10 -10
-16 -10 -5 0 -9 5 -9 10 0 6 7 10 16 10 8 0 12 -4 9 -10z m4035 -8 c0 -12 -89
-12 -96 -1 -3 5 18 9 45 9 28 0 51 -4 51 -8z m-4492 -9 c-10 -2 -26 -2 -35 0
-10 3 -2 5 17 5 19 0 27 -2 18 -5z m-165 -10 c-7 -2 -19 -2 -25 0 -7 3 -2 5
12 5 14 0 19 -2 13 -5z m494 -9 c-3 -3 -12 -4 -19 -1 -8 3 -5 6 6 6 11 1 17
-2 13 -5z m138 1 c-25 -9 -104 -12 -99 -4 3 5 29 9 57 8 29 0 48 -2 42 -4z
m-1452 -32 c-13 -2 -35 -2 -50 0 -16 2 -5 4 22 4 28 0 40 -2 28 -4z m93 -34
c6 -11 -189 -10 -231 1 -19 5 19 8 98 8 70 0 130 -4 133 -9z m1051 -15 c-3 -3
-12 -4 -19 -1 -8 3 -5 6 6 6 11 1 17 -2 13 -5z m231 -61 c-10 -2 -26 -2 -35 0
-10 3 -2 5 17 5 19 0 27 -2 18 -5z m-160 -30 c-10 -2 -28 -2 -40 0 -13 2 -5 4
17 4 22 1 32 -1 23 -4z m-1461 -9 c-3 -3 -12 -4 -19 -1 -8 3 -5 6 6 6 11 1 17
-2 13 -5z m66 -1 c-7 -2 -21 -2 -30 0 -10 3 -4 5 12 5 17 0 24 -2 18 -5z m585
-30 c-16 -2 -40 -2 -55 0 -16 2 -3 4 27 4 30 0 43 -2 28 -4z m-645 -10 c-7 -2
-19 -2 -25 0 -7 3 -2 5 12 5 14 0 19 -2 13 -5z m510 -10 c-7 -2 -19 -2 -25 0
-7 3 -2 5 12 5 14 0 19 -2 13 -5z m320 0 c-7 -2 -21 -2 -30 0 -10 3 -4 5 12 5
17 0 24 -2 18 -5z m-415 -20 c-10 -2 -28 -2 -40 0 -13 2 -5 4 17 4 22 1 32 -1
23 -4z m439 -19 c-3 -3 -12 -4 -19 -1 -8 3 -5 6 6 6 11 1 17 -2 13 -5z m528
-32 c22 -4 35 -10 30 -14 -10 -6 -104 8 -113 17 -7 7 35 5 83 -3z m281 -18
l29 -15 -45 5 c-25 3 -54 6 -65 6 l-20 1 20 9 c30 13 50 12 81 -6z m-1431 -4
c7 -12 -12 -12 -40 0 -18 8 -17 9 7 9 15 1 30 -3 33 -9z m368 -7 c-7 -2 -21
-2 -30 0 -10 3 -4 5 12 5 17 0 24 -2 18 -5z m95 0 c-10 -2 -28 -2 -40 0 -13 2
-5 4 17 4 22 1 32 -1 23 -4z m899 -29 c-3 -3 -12 -4 -19 -1 -8 3 -5 6 6 6 11
1 17 -2 13 -5z m-260 -10 c-3 -3 -12 -4 -19 -1 -8 3 -5 6 6 6 11 1 17 -2 13
-5z m-249 -41 c-10 -2 -26 -2 -35 0 -10 3 -2 5 17 5 19 0 27 -2 18 -5z m-71
-30 c-20 -2 -52 -2 -70 0 -17 2 0 4 38 4 39 0 53 -2 32 -4z m-882 -51 c-7 -7
-85 10 -80 18 2 4 23 3 44 -3 22 -6 39 -13 36 -15z m-112 11 c-13 -2 -33 -2
-45 0 -13 2 -3 4 22 4 25 0 35 -2 23 -4z m830 -10 c-7 -2 -21 -2 -30 0 -10 3
-4 5 12 5 17 0 24 -2 18 -5z m82 -3 c3 -6 -1 -7 -9 -4 -18 7 -21 14 -7 14 6 0
13 -4 16 -10z m-688 -6 c-3 -3 -12 -4 -19 -1 -8 3 -5 6 6 6 11 1 17 -2 13 -5z
m866 -1 c-13 -2 -35 -2 -50 0 -16 2 -5 4 22 4 28 0 40 -2 28 -4z m-563 -29 c0
-2 -14 -4 -31 -4 -16 0 -28 4 -25 9 5 8 56 3 56 -5z m95 1 c6 -2 -11 -4 -37
-4 -27 -1 -48 3 -48 7 0 7 62 5 85 -3z m-412 -2 c-7 -2 -21 -2 -30 0 -10 3 -4
5 12 5 17 0 24 -2 18 -5z m1417 3 c0 -2 -9 -6 -20 -9 -11 -3 -20 -1 -20 4 0 5
9 9 20 9 11 0 20 -2 20 -4z m-1752 -13 c-16 -2 -40 -2 -55 0 -16 2 -3 4 27 4
30 0 43 -2 28 -4z m435 0 c-7 -2 -19 -2 -25 0 -7 3 -2 5 12 5 14 0 19 -2 13
-5z m845 0 c-21 -2 -55 -2 -75 0 -21 2 -4 4 37 4 41 0 58 -2 38 -4z m407 -3
c-28 -12 -67 -12 -60 0 3 6 23 10 43 9 30 0 33 -2 17 -9z m-240 -21 l50 -1
-40 -9 c-55 -11 -125 -11 -125 0 0 13 22 21 45 16 11 -3 43 -5 70 -6z m-602
-46 c-7 -2 -19 -2 -25 0 -7 3 -2 5 12 5 14 0 19 -2 13 -5z m280 -10 c-7 -2
-21 -2 -30 0 -10 3 -4 5 12 5 17 0 24 -2 18 -5z m407 -3 c0 -6 -26 -9 -62 -8
l-63 1 60 7 c33 4 61 7 63 8 1 1 2 -2 2 -8z m179 6 c-2 -2 -41 -6 -87 -10 -56
-4 -81 -3 -77 4 3 5 42 10 87 10 45 0 79 -2 77 -4z m-1006 -13 c-7 -2 -21 -2
-30 0 -10 3 -4 5 12 5 17 0 24 -2 18 -5z m-720 -20 c-13 -2 -35 -2 -50 0 -16
2 -5 4 22 4 28 0 40 -2 28 -4z m1405 -10 c-10 -2 -28 -2 -40 0 -13 2 -5 4 17
4 22 1 32 -1 23 -4z m-645 -20 c-7 -2 -21 -2 -30 0 -10 3 -4 5 12 5 17 0 24
-2 18 -5z m500 -13 c-14 -6 -32 -6 -45 0 -19 7 -15 9 22 9 37 0 41 -2 23 -9z
m405 3 c-27 -2 -69 -2 -95 0 -27 2 -5 3 47 3 52 0 74 -1 48 -3z m-1373 -43 c3
-5 1 -10 -4 -10 -6 0 -11 5 -11 10 0 6 2 10 4 10 3 0 8 -4 11 -10z m735 -6 c0
-2 -30 -3 -67 -2 l-68 1 55 6 c52 6 80 4 80 -5z m239 1 c9 -10 -144 -4 -159 5
-10 7 13 8 70 5 46 -3 86 -8 89 -10z m-491 -2 c-10 -2 -26 -2 -35 0 -10 3 -2
5 17 5 19 0 27 -2 18 -5z m65 0 c-7 -2 -19 -2 -25 0 -7 3 -2 5 12 5 14 0 19
-2 13 -5z m505 0 c-10 -2 -26 -2 -35 0 -10 3 -2 5 17 5 19 0 27 -2 18 -5z
m-1115 -20 c-7 -2 -21 -2 -30 0 -10 3 -4 5 12 5 17 0 24 -2 18 -5z m1440 -10
c-7 -2 -19 -2 -25 0 -7 3 -2 5 12 5 14 0 19 -2 13 -5z m-1572 -12 c18 -7 4
-10 -59 -10 -46 -1 -81 2 -78 7 7 11 111 13 137 3z m-194 -7 c-3 -3 -12 -4
-19 -1 -8 3 -5 6 6 6 11 1 17 -2 13 -5z m988 -24 c3 -5 1 -10 -4 -10 -6 0 -11
5 -11 10 0 6 2 10 4 10 3 0 8 -4 11 -10z m365 0 c8 -1 -3 -6 -25 -10 -48 -9
-159 -4 -162 7 -3 7 139 9 187 3z m273 -4 c15 -2 42 -5 60 -6 46 -4 -102 -17
-203 -18 -85 0 -89 1 -37 12 15 4 25 11 22 16 -6 9 70 7 158 -4z m-556 -22
c-3 -3 -12 -4 -19 -1 -8 3 -5 6 6 6 11 1 17 -2 13 -5z m253 -94 c10 -7 -9 -10
-62 -10 -46 0 -78 4 -78 10 0 13 120 13 140 0z m269 6 c-11 -10 -139 -16 -139
-6 0 6 29 10 72 10 39 0 69 -2 67 -4z m-156 -13 c-7 -2 -19 -2 -25 0 -7 3 -2
5 12 5 14 0 19 -2 13 -5z m-1198 -13 c17 0 17 -2 5 -10 -22 -14 -290 -13 -290
1 0 6 9 9 19 6 10 -2 25 -1 32 4 8 5 59 6 114 4 55 -2 109 -5 120 -5z m1385 0
c10 -7 -8 -9 -60 -8 -72 1 -73 1 -25 8 28 4 55 7 60 8 6 1 17 -3 25 -8z m-156
-19 c3 -5 -2 -12 -11 -15 -9 -4 -19 -2 -23 4 -4 7 -34 10 -78 9 -39 -2 -74 0
-78 4 -4 4 36 7 89 7 53 0 98 -4 101 -9z m41 -11 c3 -5 2 -10 -4 -10 -5 0 -13
5 -16 10 -3 6 -2 10 4 10 5 0 13 -4 16 -10z m-928 -16 c-3 -3 -12 -4 -19 -1
-8 3 -5 6 6 6 11 1 17 -2 13 -5z m100 -10 c-3 -3 -12 -4 -19 -1 -8 3 -5 6 6 6
11 1 17 -2 13 -5z m446 -24 c-32 -13 -159 -22 -147 -10 8 8 51 13 144 18 24 1
24 0 3 -8z m-178 -10 c15 -7 10 -9 -23 -9 -26 -1 -41 3 -37 9 7 12 32 12 60 0z
m440 0 c8 -13 -5 -13 -25 0 -13 8 -13 10 2 10 9 0 20 -4 23 -10z m-612 -7
c-18 -2 -48 -2 -65 0 -18 2 -4 4 32 4 36 0 50 -2 33 -4z m-485 -60 c-21 -2
-57 -2 -80 0 -24 2 -7 4 37 4 44 0 63 -2 43 -4z m69 1 c-3 -3 -12 -4 -19 -1
-8 3 -5 6 6 6 11 1 17 -2 13 -5z m-264 -11 c-7 -2 -21 -2 -30 0 -10 3 -4 5 12
5 17 0 24 -2 18 -5z m1632 -3 c4 -6 -7 -10 -24 -10 -17 0 -31 5 -31 10 0 6 11
10 24 10 14 0 28 -4 31 -10z m-1615 -30 c13 -8 13 -10 -2 -10 -9 0 -20 5 -23
10 -8 13 5 13 25 0z m742 -12 c-9 -9 -15 -9 -24 0 -9 9 -7 12 12 12 19 0 21
-3 12 -12z m535 6 c-3 -3 -12 -4 -19 -1 -8 3 -5 6 6 6 11 1 17 -2 13 -5z m-27
-54 c-20 -13 -50 -13 -50 0 0 6 15 10 33 10 24 0 28 -3 17 -10z m-100 -30 c0
-5 -4 -10 -10 -10 -5 0 -10 5 -10 10 0 6 5 10 10 10 6 0 10 -4 10 -10z m-1033
-13 c4 -7 -108 2 -117 10 -3 2 22 3 54 1 32 -2 60 -6 63 -11z m583 -17 c0 -5
-5 -10 -11 -10 -5 0 -7 5 -4 10 3 6 8 10 11 10 2 0 4 -4 4 -10z m40 -6 c0 -14
-3 -14 -15 -4 -8 7 -15 14 -15 16 0 2 7 4 15 4 8 0 15 -7 15 -16z m-828 -6
c-17 -8 -26 -8 -34 0 -9 9 -4 12 23 11 32 0 33 -1 11 -11z m100 0 c-8 -8 -17
-8 -34 0 -22 10 -21 11 12 11 26 1 31 -2 22 -11z m218 2 c0 -5 -12 -11 -27
-11 -16 -1 -45 -3 -65 -5 -46 -4 -51 13 -5 19 64 8 97 7 97 -3z m585 0 c15 -7
10 -9 -23 -9 -26 -1 -41 3 -37 9 7 12 32 12 60 0z m268 -25 c-3 -17 -30 -17
-37 0 -4 13 -1 16 17 13 12 -2 21 -7 20 -13z m84 9 c-3 -3 -12 -4 -19 -1 -8 3
-5 6 6 6 11 1 17 -2 13 -5z m-1124 -11 c-13 -2 -33 -2 -45 0 -13 2 -3 4 22 4
25 0 35 -2 23 -4z m1505 0 c-15 -2 -42 -2 -60 0 -18 2 -6 4 27 4 33 0 48 -2
33 -4z m-124 -18 c4 -11 -2 -15 -24 -15 -31 0 -48 15 -28 23 25 10 46 7 52 -8z
m-231 -12 c-7 -2 -21 -2 -30 0 -10 3 -4 5 12 5 17 0 24 -2 18 -5z m-930 -30
c-18 -2 -48 -2 -65 0 -18 2 -4 4 32 4 36 0 50 -2 33 -4z m521 -8 c16 -12 17
-15 4 -15 -26 0 -48 11 -42 21 7 12 16 11 38 -6z m-666 -2 c-15 -2 -42 -2 -60
0 -18 2 -6 4 27 4 33 0 48 -2 33 -4z m1376 -8 c4 -11 -2 -15 -23 -15 -16 0
-31 7 -35 15 -4 11 2 15 23 15 16 0 31 -7 35 -15z m-895 -4 c8 -5 -5 -7 -35
-4 -27 3 -51 7 -53 9 -9 8 75 3 88 -5z m46 -51 l30 -8 -35 0 c-19 -1 -53 3
-75 7 l-40 9 45 0 c25 0 59 -4 75 -8z m555 -70 c12 -8 11 -10 -7 -10 -13 0
-23 5 -23 10 0 13 11 13 30 0z m-665 -9 c10 -17 -15 -22 -73 -15 -50 7 -54 9
-27 15 45 10 93 10 100 0z m343 2 c-10 -2 -26 -2 -35 0 -10 3 -2 5 17 5 19 0
27 -2 18 -5z m462 -2 c-36 -4 -78 -4 -95 0 -18 4 9 7 65 6 90 0 92 0 30 -6z
m208 2 c-15 -2 -42 -2 -60 0 -18 2 -6 4 27 4 33 0 48 -2 33 -4z m-303 -33 c-3
-6 -45 -10 -93 -9 -59 1 -79 4 -62 9 37 12 162 12 155 0z m-1378 -26 c-3 -3
-12 -4 -19 -1 -8 3 -5 6 6 6 11 1 17 -2 13 -5z m1773 -104 c0 -5 -8 -10 -17
-11 -10 0 -54 -2 -98 -3 -74 -4 -78 -3 -45 9 43 15 160 19 160 5z m-982 -7
c-16 -2 -40 -2 -55 0 -16 2 -3 4 27 4 30 0 43 -2 28 -4z m110 0 c-10 -2 -26
-2 -35 0 -10 3 -2 5 17 5 19 0 27 -2 18 -5z m-683 -13 c-3 -5 -14 -10 -23 -10
-15 0 -15 2 -2 10 20 13 33 13 25 0z m1338 3 c-7 -2 -19 -2 -25 0 -7 3 -2 5
12 5 14 0 19 -2 13 -5z m-1140 -20 c-7 -2 -19 -2 -25 0 -7 3 -2 5 12 5 14 0
19 -2 13 -5z m615 0 c-10 -2 -26 -2 -35 0 -10 3 -2 5 17 5 19 0 27 -2 18 -5z
m-155 -10 c-7 -2 -19 -2 -25 0 -7 3 -2 5 12 5 14 0 19 -2 13 -5z m3937 -3 c0
-6 -23 -9 -52 -9 -45 1 -49 2 -23 9 44 11 75 11 75 0z m-3175 -10 c-3 -5 -17
-10 -31 -10 -14 0 -22 4 -19 10 3 6 17 10 31 10 14 0 22 -4 19 -10z m3432 4
c-3 -3 -12 -4 -19 -1 -8 3 -5 6 6 6 11 1 17 -2 13 -5z m-3940 -10 c-3 -3 -12
-4 -19 -1 -8 3 -5 6 6 6 11 1 17 -2 13 -5z m5746 -1 c-7 -2 -19 -2 -25 0 -7 3
-2 5 12 5 14 0 19 -2 13 -5z m357 -13 c0 -5 -7 -10 -16 -10 -8 0 -12 5 -9 10
3 6 10 10 16 10 5 0 9 -4 9 -10z m47 -6 c-3 -3 -12 -4 -19 -1 -8 3 -5 6 6 6
11 1 17 -2 13 -5z m-5554 -21 c-7 -2 -21 -2 -30 0 -10 3 -4 5 12 5 17 0 24 -2
18 -5z m4732 -3 c-28 -12 -85 -12 -85 0 0 6 24 10 53 9 38 0 47 -3 32 -9z m68
3 c-7 -2 -19 -2 -25 0 -7 3 -2 5 12 5 14 0 19 -2 13 -5z m-6000 -10 c-23 -2
-64 -2 -90 0 -26 2 -7 3 42 3 50 0 71 -1 48 -3z m3900 0 c-7 -2 -19 -2 -25 0
-7 3 -2 5 12 5 14 0 19 -2 13 -5z m1064 1 c-3 -3 -12 -4 -19 -1 -8 3 -5 6 6 6
11 1 17 -2 13 -5z m146 -1 c-13 -2 -33 -2 -45 0 -13 2 -3 4 22 4 25 0 35 -2
23 -4z m-600 -10 c-7 -2 -21 -2 -30 0 -10 3 -4 5 12 5 17 0 24 -2 18 -5z m857
-3 c24 -8 24 -8 -7 -9 -17 -1 -35 4 -38 9 -7 11 9 11 45 0z m-1237 -7 c-18 -2
-48 -2 -65 0 -18 2 -4 4 32 4 36 0 50 -2 33 -4z m-4580 -10 c-18 -2 -48 -2
-65 0 -18 2 -4 4 32 4 36 0 50 -2 33 -4z m6180 -10 c-7 -2 -19 -2 -25 0 -7 3
-2 5 12 5 14 0 19 -2 13 -5z m-5558 -13 c3 -5 2 -10 -4 -10 -5 0 -13 5 -16 10
-3 6 -2 10 4 10 5 0 13 -4 16 -10z m5282 3 c-20 -2 -52 -2 -70 0 -17 2 0 4 38
4 39 0 53 -2 32 -4z m141 0 c-16 -2 -40 -2 -55 0 -16 2 -3 4 27 4 30 0 43 -2
28 -4z m-4365 -10 c-7 -2 -21 -2 -30 0 -10 3 -4 5 12 5 17 0 24 -2 18 -5z
m-1519 -18 c-4 -8 -19 -15 -35 -15 -21 0 -27 4 -23 15 4 8 19 15 35 15 21 0
27 -4 23 -15z m4499 8 c-7 -2 -21 -2 -30 0 -10 3 -4 5 12 5 17 0 24 -2 18 -5z
m1682 -4 c-11 -4 -60 -7 -110 -7 -61 1 -77 3 -50 7 62 9 183 10 160 0z m678 4
c-7 -2 -21 -2 -30 0 -10 3 -4 5 12 5 17 0 24 -2 18 -5z m-5857 -10 c-10 -10
-96 -11 -96 -1 0 4 23 8 52 8 28 0 48 -3 44 -7z m3267 0 c-7 -2 -21 -2 -30 0
-10 3 -4 5 12 5 17 0 24 -2 18 -5z m-3683 -13 c-101 -12 -208 -11 -190 0 8 5
69 9 135 8 107 -1 113 -2 55 -8z m6499 -10 c-17 -10 -75 0 -60 10 6 3 25 4 43
2 21 -3 26 -7 17 -12z m-6976 3 c-7 -2 -19 -2 -25 0 -7 3 -2 5 12 5 14 0 19
-2 13 -5z m60 0 c-7 -2 -19 -2 -25 0 -7 3 -2 5 12 5 14 0 19 -2 13 -5z m132
-3 c-7 -11 -48 -11 -85 -1 -18 6 -10 8 33 9 35 1 55 -3 52 -8z m5580 0 c4 -6
-9 -10 -32 -9 -34 1 -35 2 -13 9 35 11 38 11 45 0z m-448 -6 c-3 -3 -12 -4
-19 -1 -8 3 -5 6 6 6 11 1 17 -2 13 -5z m103 -10 c0 -2 -9 -4 -20 -4 -11 0
-20 4 -20 9 0 5 9 7 20 4 11 -3 20 -7 20 -9z m-572 -1 c-10 -2 -28 -2 -40 0
-13 2 -5 4 17 4 22 1 32 -1 23 -4z m-581 -9 c-3 -3 -12 -4 -19 -1 -8 3 -5 6 6
6 11 1 17 -2 13 -5z m58 -4 c-3 -5 -16 -10 -28 -10 -18 0 -19 2 -7 10 20 13
43 13 35 0z m112 3 c-20 -2 -52 -2 -70 0 -17 2 0 4 38 4 39 0 53 -2 32 -4z
m1138 -14 c-27 -3 -66 -3 -85 0 -32 6 -31 6 20 11 30 3 69 3 85 0 25 -3 22 -5
-20 -11z m-267 4 c-16 -2 -40 -2 -55 0 -16 2 -3 4 27 4 30 0 43 -2 28 -4z
m137 -3 c3 -5 -1 -10 -9 -10 -9 0 -16 5 -16 10 0 6 4 10 9 10 6 0 13 -4 16
-10z m1548 3 c-13 -2 -35 -2 -50 0 -16 2 -5 4 22 4 28 0 40 -2 28 -4z m-6626
-9 c-3 -3 -12 -4 -19 -1 -8 3 -5 6 6 6 11 1 17 -2 13 -5z m1018 -14 c-11 -5
-31 -9 -45 -9 -20 -1 -22 1 -10 9 8 5 29 9 45 9 26 0 27 -2 10 -9z m45 0 c0
-5 -5 -10 -11 -10 -5 0 -7 5 -4 10 3 6 8 10 11 10 2 0 4 -4 4 -10z m3363 3
c-7 -2 -21 -2 -30 0 -10 3 -4 5 12 5 17 0 24 -2 18 -5z m1797 3 c0 -3 -4 -8
-10 -11 -5 -3 -10 -1 -10 4 0 6 5 11 10 11 6 0 10 -2 10 -4z m115 -5 c16 -7
13 -9 -18 -13 -38 -4 -59 5 -35 15 18 7 30 7 53 -2z m-6321 -11 c17 0 18 -2 6
-10 -17 -11 -101 -2 -115 13 -7 6 6 7 39 3 27 -3 58 -6 70 -6z m316 0 c0 -5
-7 -10 -15 -10 -8 0 -15 5 -15 10 0 6 7 10 15 10 8 0 15 -4 15 -10z m167 4
c-3 -3 -12 -4 -19 -1 -8 3 -5 6 6 6 11 1 17 -2 13 -5z m5031 -4 c13 0 21 -4
18 -9 -6 -9 -104 4 -115 15 -3 4 12 4 34 1 22 -4 50 -7 63 -7z m-5138 -10 c18
-12 2 -12 -25 0 -13 6 -15 9 -5 9 8 0 22 -4 30 -9z m3483 3 c-23 -2 -64 -2
-90 0 -26 2 -7 3 42 3 50 0 71 -1 48 -3z m-3608 -13 c3 -5 -1 -10 -9 -10 -8 0
-18 5 -21 10 -3 6 1 10 9 10 8 0 18 -4 21 -10z m4210 -20 c17 -7 15 -9 -12 -9
-18 -1 -33 4 -33 9 0 12 17 12 45 0z m1102 -6 c-3 -3 -12 -4 -19 -1 -8 3 -5 6
6 6 11 1 17 -2 13 -5z m758 -4 c3 -5 -3 -10 -14 -10 -12 0 -21 5 -21 10 0 6 6
10 14 10 8 0 18 -4 21 -10z m-7058 -6 c-3 -3 -12 -4 -19 -1 -8 3 -5 6 6 6 11
1 17 -2 13 -5z m46 -1 c-7 -2 -19 -2 -25 0 -7 3 -2 5 12 5 14 0 19 -2 13 -5z
m4515 0 c-16 -2 -40 -2 -55 0 -16 2 -3 4 27 4 30 0 43 -2 28 -4z m1910 0 c-10
-2 -26 -2 -35 0 -10 3 -2 5 17 5 19 0 27 -2 18 -5z m337 2 c-24 -10 -145 -21
-145 -14 0 4 19 10 43 12 60 5 114 6 102 2z m152 -1 c-3 -3 -12 -4 -19 -1 -8
3 -5 6 6 6 11 1 17 -2 13 -5z m166 -1 c-7 -2 -19 -2 -25 0 -7 3 -2 5 12 5 14
0 19 -2 13 -5z m-6940 -10 c-7 -2 -19 -2 -25 0 -7 3 -2 5 12 5 14 0 19 -2 13
-5z m217 -3 c0 -5 -18 -10 -40 -10 -22 0 -40 5 -40 10 0 6 18 10 40 10 22 0
40 -4 40 -10z m113 3 c-7 -2 -21 -2 -30 0 -10 3 -4 5 12 5 17 0 24 -2 18 -5z
m4157 3 c0 -3 -4 -8 -10 -11 -5 -3 -10 -1 -10 4 0 6 5 11 10 11 6 0 10 -2 10
-4z m1970 -6 c0 -5 -5 -10 -11 -10 -5 0 -7 5 -4 10 3 6 8 10 11 10 2 0 4 -4 4
-10z m-5707 -7 c-13 -2 -33 -2 -45 0 -13 2 -3 4 22 4 25 0 35 -2 23 -4z m5570
0 c-7 -2 -19 -2 -25 0 -7 3 -2 5 12 5 14 0 19 -2 13 -5z m-383 -23 c72 -7 70
-7 -52 -9 -127 -1 -158 3 -158 21 0 9 24 8 210 -12z m847 -6 c-3 -3 -12 -4
-19 -1 -8 3 -5 6 6 6 11 1 17 -2 13 -5z m-5594 -11 c-7 -2 -19 -2 -25 0 -7 3
-2 5 12 5 14 0 19 -2 13 -5z m-620 -30 c-13 -2 -35 -2 -50 0 -16 2 -5 4 22 4
28 0 40 -2 28 -4z m4466 -9 c2 -2 -38 -3 -90 -2 -82 1 -87 2 -39 7 51 6 119 3
129 -5z m1249 9 c-10 -2 -28 -2 -40 0 -13 2 -5 4 17 4 22 1 32 -1 23 -4z
m-5906 -34 c-18 -4 -43 -4 -55 -1 -19 6 -16 7 13 12 19 3 44 4 55 1 16 -4 13
-6 -13 -12z m4423 11 c4 -6 -6 -10 -22 -9 -25 0 -26 1 -8 9 11 5 21 9 22 9 1
1 5 -3 8 -9z m-4658 -6 c-3 -3 -12 -4 -19 -1 -8 3 -5 6 6 6 11 1 17 -2 13 -5z
m336 -1 c-7 -2 -21 -2 -30 0 -10 3 -4 5 12 5 17 0 24 -2 18 -5z m6334 1 c-3
-3 -12 -4 -19 -1 -8 3 -5 6 6 6 11 1 17 -2 13 -5z m26 -31 c-7 -2 -19 -2 -25
0 -7 3 -2 5 12 5 14 0 19 -2 13 -5z m-1860 -20 c-7 -2 -21 -2 -30 0 -10 3 -4
5 12 5 17 0 24 -2 18 -5z m920 -10 c-7 -2 -21 -2 -30 0 -10 3 -4 5 12 5 17 0
24 -2 18 -5z m-5713 -13 c0 -5 -17 -9 -37 -9 -38 1 -38 1 -8 9 43 11 45 11 45
0z m829 -6 c9 -8 -135 -2 -154 6 -13 6 11 7 65 3 47 -3 87 -7 89 -9z m431 7
c13 -1 13 -3 0 -10 -8 -4 -64 -5 -125 -2 -70 3 -97 7 -75 11 31 5 160 6 200 1z
m3320 -12 c0 -11 -139 -12 -195 -1 -33 6 -22 8 60 12 107 5 135 3 135 -11z
m598 4 c-16 -2 -40 -2 -55 0 -16 2 -3 4 27 4 30 0 43 -2 28 -4z m-3788 -23 c0
-5 -4 -10 -9 -10 -6 0 -13 5 -16 10 -3 6 1 10 9 10 9 0 16 -4 16 -10z m3140
-24 c8 -2 -14 -4 -50 -5 -36 0 -59 3 -53 7 12 7 65 6 103 -2z m50 4 c0 -5 -4
-10 -10 -10 -5 0 -10 5 -10 10 0 6 5 10 10 10 6 0 10 -4 10 -10z m-3902 -7
c-10 -2 -28 -2 -40 0 -13 2 -5 4 17 4 22 1 32 -1 23 -4z m55 0 c-7 -2 -19 -2
-25 0 -7 3 -2 5 12 5 14 0 19 -2 13 -5z m402 -13 c4 -6 -12 -10 -42 -10 -35 0
-44 3 -33 10 20 13 67 13 75 0z m4943 -7 c-16 -2 -40 -2 -55 0 -16 2 -3 4 27
4 30 0 43 -2 28 -4z m-5935 -20 c-7 -2 -19 -2 -25 0 -7 3 -2 5 12 5 14 0 19
-2 13 -5z m355 0 c-15 -2 -42 -2 -60 0 -18 2 -6 4 27 4 33 0 48 -2 33 -4z
m5220 -10 c-10 -2 -28 -2 -40 0 -13 2 -5 4 17 4 22 1 32 -1 23 -4z m-5835 -10
c-7 -2 -21 -2 -30 0 -10 3 -4 5 12 5 17 0 24 -2 18 -5z m102 -3 c15 -6 8 -9
-28 -9 -30 -1 -46 3 -42 9 7 12 42 12 70 0z m5235 0 c0 -5 -10 -10 -22 -9 -22
0 -22 1 -3 9 11 5 21 9 23 9 1 1 2 -3 2 -9z m-3972 -7 c-10 -2 -28 -2 -40 0
-13 2 -5 4 17 4 22 1 32 -1 23 -4z m3885 -30 c-7 -2 -19 -2 -25 0 -7 3 -2 5
12 5 14 0 19 -2 13 -5z m-120 -10 c-7 -2 -19 -2 -25 0 -7 3 -2 5 12 5 14 0 19
-2 13 -5z m60 0 c-7 -2 -19 -2 -25 0 -7 3 -2 5 12 5 14 0 19 -2 13 -5z m905 0
c-10 -2 -28 -2 -40 0 -13 2 -5 4 17 4 22 1 32 -1 23 -4z m132 -7 l55 -13 -65
-4 c-41 -3 -70 0 -77 8 -10 9 -10 12 0 16 18 8 27 7 87 -7z m113 7 c-7 -2 -19
-2 -25 0 -7 3 -2 5 12 5 14 0 19 -2 13 -5z m74 1 c-3 -3 -12 -4 -19 -1 -8 3
-5 6 6 6 11 1 17 -2 13 -5z m-5179 -21 c-10 -2 -26 -2 -35 0 -10 3 -2 5 17 5
19 0 27 -2 18 -5z m5259 1 c-3 -3 -12 -4 -19 -1 -8 3 -5 6 6 6 11 1 17 -2 13
-5z m-1389 -18 c3 -3 -26 -6 -64 -6 -47 0 -64 3 -54 10 15 9 107 6 118 -4z
m189 -12 c-3 -3 -12 -4 -19 -1 -8 3 -5 6 6 6 11 1 17 -2 13 -5z m-4162 -14 c3
-5 -1 -10 -10 -10 -9 0 -13 5 -10 10 3 6 8 10 10 10 2 0 7 -4 10 -10z m-922
-7 c-7 -2 -21 -2 -30 0 -10 3 -4 5 12 5 17 0 24 -2 18 -5z m815 0 c-10 -2 -28
-2 -40 0 -13 2 -5 4 17 4 22 1 32 -1 23 -4z m192 -3 c-19 -13 -30 -13 -30 0 0
6 10 10 23 10 18 0 19 -2 7 -10z m-605 -10 c7 -12 -48 -12 -85 0 -20 6 -14 8
27 9 28 1 55 -3 58 -9z m175 0 c0 -5 -17 -10 -37 -10 -28 0 -34 3 -23 10 20
13 60 13 60 0z m4813 3 c-7 -2 -19 -2 -25 0 -7 3 -2 5 12 5 14 0 19 -2 13 -5z
m155 -2 c7 -4 -13 -6 -45 -4 -79 6 -89 11 -23 12 30 0 61 -3 68 -8z m191 5
c-9 -9 -149 -14 -154 -5 -4 5 28 9 76 9 45 0 80 -2 78 -4z m-5261 -13 c-10 -2
-26 -2 -35 0 -10 3 -2 5 17 5 19 0 27 -2 18 -5z m5440 -4 c-12 -7 -24 -7 -35
0 -15 9 -12 10 17 10 29 0 32 -1 18 -10z m-6061 -15 c-3 -3 -12 -4 -19 -1 -8
3 -5 6 6 6 11 1 17 -2 13 -5z m643 -10 c0 -2 -17 -4 -37 -3 -29 0 -33 2 -18 8
18 7 55 4 55 -5z m73 -1 c-7 -2 -19 -2 -25 0 -7 3 -2 5 12 5 14 0 19 -2 13 -5z
m217 -19 c0 -2 -18 -4 -40 -4 -22 0 -40 3 -40 8 0 4 18 6 40 4 22 -2 40 -6 40
-8z m4846 5 c4 -7 0 -9 -12 -5 -11 3 -42 2 -71 -3 -40 -6 -53 -5 -57 6 -4 10
10 13 64 13 39 0 72 -5 76 -11z m-4716 -9 c0 -12 -8 -12 -35 0 -18 8 -17 9 8
9 15 1 27 -3 27 -9z m5088 -7 c-10 -2 -26 -2 -35 0 -10 3 -2 5 17 5 19 0 27
-2 18 -5z m-5763 -93 c-3 -5 -14 -10 -23 -9 -14 0 -13 2 3 9 27 11 27 11 20 0z
m713 3 c-16 -2 -40 -2 -55 0 -16 2 -3 4 27 4 30 0 43 -2 28 -4z m465 -10 c-7
-2 -21 -2 -30 0 -10 3 -4 5 12 5 17 0 24 -2 18 -5z m-908 -13 c8 -13 -25 -13
-45 0 -12 8 -9 10 12 10 15 0 30 -4 33 -10z m4882 -6 c-3 -3 -12 -4 -19 -1 -8
3 -5 6 6 6 11 1 17 -2 13 -5z m-374 -15 c-8 -8 -16 -8 -30 0 -16 9 -14 10 12
11 21 0 26 -3 18 -11z m1140 4 c-7 -2 -19 -2 -25 0 -7 3 -2 5 12 5 14 0 19 -2
13 -5z m-5354 -14 c-16 -6 -40 -6 -65 0 -37 9 -36 9 26 9 52 0 60 -1 39 -9z
m-202 -25 c-3 -3 -12 -4 -19 -1 -8 3 -5 6 6 6 11 1 17 -2 13 -5z m5619 -7 c4
-4 -14 -7 -39 -7 -26 0 -47 4 -47 8 0 10 76 9 86 -1z m-186 -30 c8 -3 -6 -6
-32 -6 -27 -1 -48 3 -48 8 0 13 31 19 50 11 8 -4 22 -10 30 -13z m-5197 6
c-13 -2 -33 -2 -45 0 -13 2 -3 4 22 4 25 0 35 -2 23 -4z m4157 3 c0 -2 -9 -6
-20 -9 -11 -3 -20 -1 -20 4 0 5 9 9 20 9 11 0 20 -2 20 -4z m548 -13 c-21 -2
-55 -2 -75 0 -21 2 -4 4 37 4 41 0 58 -2 38 -4z m79 1 c-3 -3 -12 -4 -19 -1
-8 3 -5 6 6 6 11 1 17 -2 13 -5z m-614 -11 c-7 -2 -19 -2 -25 0 -7 3 -2 5 12
5 14 0 19 -2 13 -5z m124 -9 c-3 -3 -12 -4 -19 -1 -8 3 -5 6 6 6 11 1 17 -2
13 -5z m-5147 -14 c11 -7 7 -10 -18 -10 -20 0 -31 4 -27 10 8 13 26 13 45 0z
m343 -7 c-7 -2 -19 -2 -25 0 -7 3 -2 5 12 5 14 0 19 -2 13 -5z m1150 0 c-7 -2
-19 -2 -25 0 -7 3 -2 5 12 5 14 0 19 -2 13 -5z m3632 -13 c-3 -5 -14 -10 -23
-10 -15 0 -15 2 -2 10 20 13 33 13 25 0z m-3982 -7 c-13 -2 -33 -2 -45 0 -13
2 -3 4 22 4 25 0 35 -2 23 -4z m4453 -2 c-5 -8 -56 -3 -56 5 0 2 14 4 31 4 16
0 28 -4 25 -9z m99 -1 c3 -5 1 -10 -4 -10 -6 0 -11 5 -11 10 0 6 2 10 4 10 3
0 8 -4 11 -10z m-4592 -27 c-13 -2 -35 -2 -50 0 -16 2 -5 4 22 4 28 0 40 -2
28 -4z m5067 -13 c0 -5 -4 -10 -10 -10 -5 0 -10 5 -10 10 0 6 5 10 10 10 6 0
10 -4 10 -10z m-5347 -7 c-13 -2 -35 -2 -50 0 -16 2 -5 4 22 4 28 0 40 -2 28
-4z m5242 -3 c-3 -5 -12 -10 -18 -10 -7 0 -6 4 3 10 19 12 23 12 15 0z m48 3
c-7 -2 -19 -2 -25 0 -7 3 -2 5 12 5 14 0 19 -2 13 -5z m-6164 -18 c2 -3 -27
-5 -65 -5 -47 0 -64 3 -54 10 14 9 109 5 119 -5z m1479 8 c-10 -2 -26 -2 -35
0 -10 3 -2 5 17 5 19 0 27 -2 18 -5z m-423 -43 c-46 -12 -137 -12 -130 0 3 6
41 9 83 9 57 -1 69 -3 47 -9z m4962 -3 c0 -15 -55 -21 -100 -11 -43 9 -14 24
49 24 35 0 51 -4 51 -13z m-4887 -17 c0 -13 -30 -13 -50 0 -11 7 -7 10 18 10
17 0 32 -4 32 -10z m5005 0 c-11 -5 -31 -9 -45 -9 -20 -1 -22 1 -10 9 8 5 29
9 45 9 26 0 27 -2 10 -9z m-6018 -44 c3 -3 -31 -6 -76 -6 -45 0 -80 4 -77 8 6
10 143 8 153 -2z m4956 7 c-7 -2 -19 -2 -25 0 -7 3 -2 5 12 5 14 0 19 -2 13
-5z m130 0 c-13 -2 -35 -2 -50 0 -16 2 -5 4 22 4 28 0 40 -2 28 -4z m274 1
c-3 -3 -12 -4 -19 -1 -8 3 -5 6 6 6 11 1 17 -2 13 -5z m270 -18 c4 -3 -30 -6
-75 -6 -47 0 -84 4 -88 11 -7 11 152 7 163 -5z m78 5 c17 -7 16 -8 -10 -13
-37 -7 -63 1 -43 13 16 10 26 10 53 0z m62 3 c-3 -3 -12 -4 -19 -1 -8 3 -5 6
6 6 11 1 17 -2 13 -5z m-4490 -20 c-3 -3 -12 -4 -19 -1 -8 3 -5 6 6 6 11 1 17
-2 13 -5z m4331 -21 c-10 -2 -28 -2 -40 0 -13 2 -5 4 17 4 22 1 32 -1 23 -4z
m-5175 -10 c-7 -2 -19 -2 -25 0 -7 3 -2 5 12 5 14 0 19 -2 13 -5z m-463 -17
c0 -2 -16 -6 -35 -8 -19 -2 -35 0 -35 4 0 4 16 8 35 8 19 0 35 -2 35 -4z
m5868 -3 c-10 -2 -26 -2 -35 0 -10 3 -2 5 17 5 19 0 27 -2 18 -5z m270 -7 c3
-3 -18 -6 -46 -6 -29 0 -52 4 -52 9 0 9 88 6 98 -3z m59 -2 c-3 -3 -12 -4 -19
-1 -8 3 -5 6 6 6 11 1 17 -2 13 -5z m-6030 -20 c-3 -3 -12 -4 -19 -1 -8 3 -5
6 6 6 11 1 17 -2 13 -5z m156 -1 c-7 -2 -19 -2 -25 0 -7 3 -2 5 12 5 14 0 19
-2 13 -5z m252 -6 c22 -2 -20 -4 -93 -5 -73 -1 -131 1 -129 6 5 6 127 6 222
-1z m5512 7 c-3 -3 -12 -4 -19 -1 -8 3 -5 6 6 6 11 1 17 -2 13 -5z m-220 -30
c-3 -3 -12 -4 -19 -1 -8 3 -5 6 6 6 11 1 17 -2 13 -5z m-4867 -34 c0 -5 -20
-10 -44 -10 -25 0 -48 5 -51 10 -4 6 13 10 44 10 28 0 51 -4 51 -10z m-975
-10 c15 -6 9 -9 -25 -9 -25 0 -54 4 -65 9 -15 6 -9 9 25 9 25 0 54 -4 65 -9z
m698 3 c-7 -2 -19 -2 -25 0 -7 3 -2 5 12 5 14 0 19 -2 13 -5z m-826 -9 c-3 -3
-12 -4 -19 -1 -8 3 -5 6 6 6 11 1 17 -2 13 -5z m242 -10 c2 -2 -16 -4 -40 -4
-31 0 -40 3 -29 10 13 8 57 4 69 -6z m146 6 c-3 -5 -33 -10 -66 -10 -38 0 -58
4 -54 10 3 6 33 10 66 10 38 0 58 -4 54 -10z m95 0 c0 -5 -6 -10 -14 -10 -8 0
-18 5 -21 10 -3 6 3 10 14 10 12 0 21 -4 21 -10z m58 3 c-10 -2 -26 -2 -35 0
-10 3 -2 5 17 5 19 0 27 -2 18 -5z m175 0 c-13 -2 -33 -2 -45 0 -13 2 -3 4 22
4 25 0 35 -2 23 -4z m615 0 c-15 -2 -42 -2 -60 0 -18 2 -6 4 27 4 33 0 48 -2
33 -4z m4525 0 c-23 -2 -64 -2 -90 0 -26 2 -7 3 42 3 50 0 71 -1 48 -3z
m-4685 -20 c-16 -2 -40 -2 -55 0 -16 2 -3 4 27 4 30 0 43 -2 28 -4z m4949 1
c-3 -3 -12 -4 -19 -1 -8 3 -5 6 6 6 11 1 17 -2 13 -5z m-5792 -24 c13 -6 -10
-8 -67 -7 -47 1 -81 5 -75 9 16 10 117 9 142 -2z m188 -7 c-29 -2 -78 -2 -110
0 -32 2 -8 3 52 3 61 0 87 -1 58 -3z m5076 -9 c2 -2 -38 -3 -90 -2 -92 1 -93
2 -29 8 59 5 108 3 119 -6z m71 -4 c0 -5 -15 -10 -32 -10 -25 0 -29 3 -18 10
20 13 50 13 50 0z m-5732 -10 c21 0 31 -4 27 -10 -7 -11 -122 -12 -140 -2 -14
8 36 21 60 16 11 -2 35 -4 53 -4z m6347 0 c-3 -5 -13 -10 -21 -10 -8 0 -14 5
-14 10 0 6 9 10 21 10 11 0 17 -4 14 -10z m-5422 -7 c-7 -2 -19 -2 -25 0 -7 3
-2 5 12 5 14 0 19 -2 13 -5z m-366 -9 c-3 -3 -12 -4 -19 -1 -8 3 -5 6 6 6 11
1 17 -2 13 -5z m4876 -1 c-7 -2 -21 -2 -30 0 -10 3 -4 5 12 5 17 0 24 -2 18
-5z m260 -10 c-7 -2 -19 -2 -25 0 -7 3 -2 5 12 5 14 0 19 -2 13 -5z m120 0
c-18 -2 -48 -2 -65 0 -18 2 -4 4 32 4 36 0 50 -2 33 -4z m447 -13 c0 -5 -7 -7
-15 -4 -8 4 -15 8 -15 10 0 2 7 4 15 4 8 0 15 -4 15 -10z m-5212 -7 c-16 -2
-40 -2 -55 0 -16 2 -3 4 27 4 30 0 43 -2 28 -4z m352 -3 c13 -9 13 -11 0 -19
-8 -5 -19 -7 -24 -4 -6 4 -5 8 3 11 11 4 11 6 0 13 -8 5 -9 9 -4 9 6 0 17 -5
25 -10z m-800 -10 c0 -5 -10 -10 -22 -9 -22 0 -22 1 -3 9 11 5 21 9 23 9 1 1
2 -3 2 -9z m857 -6 c-3 -3 -12 -4 -19 -1 -8 3 -5 6 6 6 11 1 17 -2 13 -5z m64
-12 c-18 -2 -37 0 -42 5 -5 5 11 6 34 3 41 -4 41 -5 8 -8z m4446 -18 c-3 -3
-12 -4 -19 -1 -8 3 -5 6 6 6 11 1 17 -2 13 -5z m391 -1 c-10 -2 -26 -2 -35 0
-10 3 -2 5 17 5 19 0 27 -2 18 -5z m-478 -13 c0 -6 -26 -9 -62 -8 l-63 1 60 7
c33 4 61 7 63 8 1 1 2 -2 2 -8z m-5013 -27 c-20 -2 -52 -2 -70 0 -17 2 0 4 38
4 39 0 53 -2 32 -4z m130 1 c-3 -3 -12 -4 -19 -1 -8 3 -5 6 6 6 11 1 17 -2 13
-5z m5238 -23 c-3 -5 5 -12 17 -14 17 -3 14 -5 -9 -6 -23 -1 -33 3 -33 14 0 8
7 15 16 15 8 0 13 -4 9 -9z m83 -3 c-6 -18 -28 -21 -28 -4 0 9 7 16 16 16 9 0
14 -5 12 -12z m-4971 -4 c-3 -3 -12 -4 -19 -1 -8 3 -5 6 6 6 11 1 17 -2 13 -5z
m4133 -4 c0 -5 -5 -10 -11 -10 -5 0 -7 5 -4 10 3 6 8 10 11 10 2 0 4 -4 4 -10z
m-4025 -10 c-3 -5 -34 -9 -68 -9 -57 2 -59 2 -22 9 62 11 97 11 90 0z m3712 4
c-3 -3 -12 -4 -19 -1 -8 3 -5 6 6 6 11 1 17 -2 13 -5z m148 -4 c-3 -5 -12 -10
-20 -10 -8 0 -17 5 -20 10 -4 6 5 10 20 10 15 0 24 -4 20 -10z m-3558 -6 c-3
-3 -12 -4 -19 -1 -8 3 -5 6 6 6 11 1 17 -2 13 -5z m-700 -10 c-3 -3 -12 -4
-19 -1 -8 3 -5 6 6 6 11 1 17 -2 13 -5z m4966 -11 c-7 -2 -19 -2 -25 0 -7 3
-2 5 12 5 14 0 19 -2 13 -5z m-5793 -13 c-8 -5 -19 -10 -25 -10 -5 0 -3 5 5
10 8 5 20 10 25 10 6 0 3 -5 -5 -10z m5420 -21 c11 -7 2 -9 -33 -5 -27 2 -51
7 -54 10 -11 10 71 6 87 -5z m327 -5 c-3 -3 -12 -4 -19 -1 -8 3 -5 6 6 6 11 1
17 -2 13 -5z m-5591 -11 c-11 -11 -126 -13 -126 -2 0 5 30 9 67 9 36 0 63 -3
59 -7z m4997 0 c-35 -2 -91 -2 -125 0 -35 2 -7 3 62 3 69 0 97 -1 63 -3z
m-5265 -10 c-15 -2 -42 -2 -60 0 -18 2 -6 4 27 4 33 0 48 -2 33 -4z m692 -3
c-8 -5 -24 -9 -35 -9 -16 1 -16 2 5 9 35 11 48 11 30 0z m57 4 c-3 -3 -12 -4
-19 -1 -8 3 -5 6 6 6 11 1 17 -2 13 -5z m50 0 c-3 -3 -12 -4 -19 -1 -8 3 -5 6
6 6 11 1 17 -2 13 -5z m61 -1 c-10 -2 -26 -2 -35 0 -10 3 -2 5 17 5 19 0 27
-2 18 -5z m-495 -10 c-7 -2 -19 -2 -25 0 -7 3 -2 5 12 5 14 0 19 -2 13 -5z
m-316 -19 c-3 -3 -12 -4 -19 -1 -8 3 -5 6 6 6 11 1 17 -2 13 -5z m346 -21 c-7
-2 -19 -2 -25 0 -7 3 -2 5 12 5 14 0 19 -2 13 -5z m287 0 c0 -13 -52 -33 -84
-33 -40 0 -23 16 29 29 53 12 55 12 55 4z m1058 -10 c-10 -2 -26 -2 -35 0 -10
3 -2 5 17 5 19 0 27 -2 18 -5z m3365 0 c-7 -2 -19 -2 -25 0 -7 3 -2 5 12 5 14
0 19 -2 13 -5z m60 0 c-7 -2 -19 -2 -25 0 -7 3 -2 5 12 5 14 0 19 -2 13 -5z
m827 -13 c0 -5 -4 -10 -10 -10 -5 0 -10 5 -10 10 0 6 5 10 10 10 6 0 10 -4 10
-10z m239 6 c-7 -8 -108 -10 -115 -3 -4 4 21 7 56 7 35 0 61 -2 59 -4z m-5161
-13 c-10 -2 -28 -2 -40 0 -13 2 -5 4 17 4 22 1 32 -1 23 -4z m399 1 c-3 -3
-12 -4 -19 -1 -8 3 -5 6 6 6 11 1 17 -2 13 -5z m4611 -1 c-10 -2 -28 -2 -40 0
-13 2 -5 4 17 4 22 1 32 -1 23 -4z m-5630 -10 c-15 -2 -42 -2 -60 0 -18 2 -6
4 27 4 33 0 48 -2 33 -4z m75 0 c-7 -2 -19 -2 -25 0 -7 3 -2 5 12 5 14 0 19
-2 13 -5z m622 -23 c-3 -5 -19 -10 -35 -10 -16 0 -32 5 -35 10 -4 6 10 10 35
10 25 0 39 -4 35 -10z m433 3 c-10 -2 -26 -2 -35 0 -10 3 -2 5 17 5 19 0 27
-2 18 -5z m3465 0 c-7 -2 -21 -2 -30 0 -10 3 -4 5 12 5 17 0 24 -2 18 -5z
m-4920 -10 c-7 -2 -21 -2 -30 0 -10 3 -4 5 12 5 17 0 24 -2 18 -5z m80 0 c-13
-2 -33 -2 -45 0 -13 2 -3 4 22 4 25 0 35 -2 23 -4z m1490 0 c-7 -2 -19 -2 -25
0 -7 3 -2 5 12 5 14 0 19 -2 13 -5z m-973 -17 c0 -3 -4 -8 -10 -11 -5 -3 -10
-1 -10 4 0 6 5 11 10 11 6 0 10 -2 10 -4z m5512 -8 c8 -4 -14 -8 -52 -9 -36 0
-114 -1 -173 -2 -101 -2 -141 5 -100 16 30 8 311 4 325 -5z m-824 -15 c-10 -2
-26 -2 -35 0 -10 3 -2 5 17 5 19 0 27 -2 18 -5z m-4371 -19 c-3 -3 -12 -4 -19
-1 -8 3 -5 6 6 6 11 1 17 -2 13 -5z m4126 -1 c-13 -2 -33 -2 -45 0 -13 2 -3 4
22 4 25 0 35 -2 23 -4z m-4986 -9 c-3 -3 -12 -4 -19 -1 -8 3 -5 6 6 6 11 1 17
-2 13 -5z m66 -1 c-7 -2 -19 -2 -25 0 -7 3 -2 5 12 5 14 0 19 -2 13 -5z m550
0 c-7 -2 -21 -2 -30 0 -10 3 -4 5 12 5 17 0 24 -2 18 -5z m200 0 c-7 -2 -19
-2 -25 0 -7 3 -2 5 12 5 14 0 19 -2 13 -5z m724 -4 c-14 -8 -22 -8 -30 0 -8 8
-3 11 19 11 25 -1 27 -2 11 -11z m103 1 c0 -13 -11 -13 -30 0 -12 8 -11 10 8
10 12 0 22 -4 22 -10z m3897 4 c-3 -3 -12 -4 -19 -1 -8 3 -5 6 6 6 11 1 17 -2
13 -5z m516 -1 c-7 -2 -19 -2 -25 0 -7 3 -2 5 12 5 14 0 19 -2 13 -5z m-5703
-22 c0 -16 -7 -19 -47 -19 -41 0 -45 2 -25 11 12 5 22 13 22 16 0 4 11 8 25 9
19 1 25 -3 25 -17z m487 -7 c-3 -3 -12 -4 -19 -1 -8 3 -5 6 6 6 11 1 17 -2 13
-5z m5203 -4 c17 -5 -3 -8 -60 -8 -57 0 -77 3 -60 8 14 4 41 8 60 8 19 0 46
-4 60 -8z m-5937 -7 c-18 -2 -48 -2 -65 0 -18 2 -4 4 32 4 36 0 50 -2 33 -4z
m410 0 c-7 -2 -21 -2 -30 0 -10 3 -4 5 12 5 17 0 24 -2 18 -5z m812 -13 c17
-7 14 -9 -13 -9 -20 -1 -31 3 -27 9 7 12 13 12 40 0z m-112 -7 c-13 -2 -33 -2
-45 0 -13 2 -3 4 22 4 25 0 35 -2 23 -4z m4687 -19 c0 -2 -11 -4 -25 -4 -14 0
-25 4 -25 9 0 4 11 6 25 3 14 -2 25 -6 25 -8z m-5017 -21 c-7 -2 -21 -2 -30 0
-10 3 -4 5 12 5 17 0 24 -2 18 -5z m4244 -9 c-3 -3 -12 -4 -19 -1 -8 3 -5 6 6
6 11 1 17 -2 13 -5z m-5134 -41 c-13 -2 -35 -2 -50 0 -16 2 -5 4 22 4 28 0 40
-2 28 -4z m4905 -20 c-21 -2 -57 -2 -80 0 -24 2 -7 4 37 4 44 0 63 -2 43 -4z
m-3181 -49 c-3 -3 -12 -4 -19 -1 -8 3 -5 6 6 6 11 1 17 -2 13 -5z m-489 -41
c-32 -2 -86 -2 -120 0 -35 2 -9 3 57 3 66 0 94 -1 63 -3z m4121 -17 c-10 -8
-89 -13 -83 -5 3 5 24 9 46 9 23 0 39 -2 37 -4z m-5021 -23 c-10 -2 -26 -2
-35 0 -10 3 -2 5 17 5 19 0 27 -2 18 -5z m-291 -9 c-3 -3 -12 -4 -19 -1 -8 3
-5 6 6 6 11 1 17 -2 13 -5z m846 -1 c-13 -2 -35 -2 -50 0 -16 2 -5 4 22 4 28
0 40 -2 28 -4z m947 -3 c-20 -5 -39 -5 -44 1 -6 5 7 9 35 8 l44 -1 -35 -8z
m3153 -17 c-7 -2 -21 -2 -30 0 -10 3 -4 5 12 5 17 0 24 -2 18 -5z m-4236 -19
c-3 -3 -12 -4 -19 -1 -8 3 -5 6 6 6 11 1 17 -2 13 -5z m4450 -10 c-3 -3 -12
-4 -19 -1 -8 3 -5 6 6 6 11 1 17 -2 13 -5z m892 -8 c-2 -2 -22 -6 -44 -10 -29
-5 -36 -4 -25 3 13 10 79 16 69 7z m-522 -18 c15 -6 31 -11 36 -10 4 1 7 -3 7
-9 0 -6 -7 -8 -16 -5 -9 3 -82 7 -162 7 l-147 1 65 13 c85 16 182 18 217 3z
m-459 -5 c-10 -2 -26 -2 -35 0 -10 3 -2 5 17 5 19 0 27 -2 18 -5z m850 -20
c-32 -2 -84 -2 -115 0 -32 2 -6 3 57 3 63 0 89 -1 58 -3z m-5231 -9 c-3 -3
-12 -4 -19 -1 -8 3 -5 6 6 6 11 1 17 -2 13 -5z m40 0 c-3 -3 -12 -4 -19 -1 -8
3 -5 6 6 6 11 1 17 -2 13 -5z m60 0 c-3 -3 -12 -4 -19 -1 -8 3 -5 6 6 6 11 1
17 -2 13 -5z m166 -1 c-7 -2 -21 -2 -30 0 -10 3 -4 5 12 5 17 0 24 -2 18 -5z
m4135 0 c-21 -2 -55 -2 -75 0 -21 2 -4 4 37 4 41 0 58 -2 38 -4z m165 0 c-13
-2 -33 -2 -45 0 -13 2 -3 4 22 4 25 0 35 -2 23 -4z m-4976 -9 c-3 -3 -12 -4
-19 -1 -8 3 -5 6 6 6 11 1 17 -2 13 -5z m1303 -3 c0 -17 -66 -22 -96 -6 -29
15 -28 15 34 15 34 0 62 -4 62 -9z m237 3 c-3 -3 -12 -4 -19 -1 -8 3 -5 6 6 6
11 1 17 -2 13 -5z m-1179 -21 c-21 -2 -57 -2 -80 0 -24 2 -7 4 37 4 44 0 63
-2 43 -4z m1012 -33 c0 -5 -7 -10 -16 -10 -8 0 -12 5 -9 10 3 6 10 10 16 10 5
0 9 -4 9 -10z m-1487 -7 c-7 -2 -19 -2 -25 0 -7 3 -2 5 12 5 14 0 19 -2 13 -5z
m4995 0 c-16 -2 -40 -2 -55 0 -16 2 -3 4 27 4 30 0 43 -2 28 -4z m-4770 -10
c-15 -2 -42 -2 -60 0 -18 2 -6 4 27 4 33 0 48 -2 33 -4z m1020 0 c-10 -2 -28
-2 -40 0 -13 2 -5 4 17 4 22 1 32 -1 23 -4z m3409 1 c13 -4 20 -10 17 -16 -4
-5 -10 -5 -17 0 -7 6 -21 12 -32 15 -11 3 -13 5 -5 6 8 0 25 -2 37 -5z m608
-14 c-3 -5 -32 -9 -63 -8 l-57 1 50 7 c28 4 56 8 63 8 7 1 10 -2 7 -8z m113 3
c-10 -2 -26 -2 -35 0 -10 3 -2 5 17 5 19 0 27 -2 18 -5z m-5225 -20 c-7 -2
-19 -2 -25 0 -7 3 -2 5 12 5 14 0 19 -2 13 -5z m520 0 c-7 -2 -19 -2 -25 0 -7
3 -2 5 12 5 14 0 19 -2 13 -5z m630 -20 c-7 -2 -19 -2 -25 0 -7 3 -2 5 12 5
14 0 19 -2 13 -5z m70 0 c-7 -2 -21 -2 -30 0 -10 3 -4 5 12 5 17 0 24 -2 18
-5z m234 1 c-3 -3 -22 -6 -42 -6 -20 0 -39 3 -42 6 -4 3 15 6 42 6 27 0 46 -3
42 -6z m3433 -17 c0 -11 -225 -6 -242 5 -8 5 39 8 114 6 71 -2 128 -7 128 -11z
m-4012 -14 c-10 -2 -28 -2 -40 0 -13 2 -5 4 17 4 22 1 32 -1 23 -4z m-510 -10
c-15 -2 -42 -2 -60 0 -18 2 -6 4 27 4 33 0 48 -2 33 -4z m227 -2 c-6 -5 -48
-12 -95 -16 -78 -6 -83 -5 -65 9 22 17 177 24 160 7z m4472 3 c-3 -3 -12 -4
-19 -1 -8 3 -5 6 6 6 11 1 17 -2 13 -5z m-4317 -8 c0 -9 -50 -12 -62 -5 -8 6
1 9 25 9 20 0 37 -2 37 -4z m-345 -16 c-3 -5 -11 -10 -16 -10 -6 0 -7 5 -4 10
3 6 11 10 16 10 6 0 7 -4 4 -10z m1395 -1 c0 -15 -254 -13 -279 1 -9 4 49 8
132 8 81 -1 147 -5 147 -9z m3547 5 c-3 -3 -12 -4 -19 -1 -8 3 -5 6 6 6 11 1
17 -2 13 -5z m-4750 -10 c-3 -3 -12 -4 -19 -1 -8 3 -5 6 6 6 11 1 17 -2 13 -5z
m4200 -20 c-3 -3 -12 -4 -19 -1 -8 3 -5 6 6 6 11 1 17 -2 13 -5z m56 -1 c-7
-2 -21 -2 -30 0 -10 3 -4 5 12 5 17 0 24 -2 18 -5z m54 1 c-3 -3 -12 -4 -19
-1 -8 3 -5 6 6 6 11 1 17 -2 13 -5z m66 -1 c-7 -2 -19 -2 -25 0 -7 3 -2 5 12
5 14 0 19 -2 13 -5z m-4889 -25 c-5 -7 -67 -6 -111 2 -2 0 -3 3 -3 8 0 4 27 5
60 4 36 -2 58 -8 54 -14z m273 -4 c-3 -3 -12 -4 -19 -1 -8 3 -5 6 6 6 11 1 17
-2 13 -5z m121 -1 c-16 -2 -40 -2 -55 0 -16 2 -3 4 27 4 30 0 43 -2 28 -4z
m4541 -9 c10 -9 -45 -3 -59 6 -11 7 -5 8 20 4 19 -4 37 -8 39 -10z m541 2 c0
-2 -11 -6 -25 -8 -14 -3 -25 -1 -25 3 0 5 11 9 25 9 14 0 25 -2 25 -4z m-5487
-26 c-14 -6 -32 -6 -45 0 -19 7 -15 9 22 9 37 0 41 -2 23 -9z m585 3 c-10 -2
-26 -2 -35 0 -10 3 -2 5 17 5 19 0 27 -2 18 -5z m1195 -20 c-7 -2 -19 -2 -25
0 -7 3 -2 5 12 5 14 0 19 -2 13 -5z m-1068 -31 c-11 -4 -63 -5 -115 -2 l-95 6
115 2 c63 0 106 -2 95 -6z m200 -2 l20 -9 -20 1 c-11 0 -33 4 -50 8 l-30 8 30
0 c17 0 39 -3 50 -8z m278 3 c-7 -2 -21 -2 -30 0 -10 3 -4 5 12 5 17 0 24 -2
18 -5z m-1183 -13 c-19 -13 -30 -13 -30 0 0 6 10 10 23 10 18 0 19 -2 7 -10z
m1638 -7 c-10 -2 -26 -2 -35 0 -10 3 -2 5 17 5 19 0 27 -2 18 -5z m3549 1 c-3
-3 -12 -4 -19 -1 -8 3 -5 6 6 6 11 1 17 -2 13 -5z m-4370 -10 c-3 -3 -12 -4
-19 -1 -8 3 -5 6 6 6 11 1 17 -2 13 -5z m941 -21 c-10 -2 -28 -2 -40 0 -13 2
-5 4 17 4 22 1 32 -1 23 -4z m3125 0 c-7 -2 -19 -2 -25 0 -7 3 -2 5 12 5 14 0
19 -2 13 -5z m702 -23 c4 -6 -9 -10 -32 -9 -34 1 -35 2 -13 9 35 11 38 11 45
0z m35 0 c0 -5 -4 -10 -10 -10 -5 0 -10 5 -10 10 0 6 5 10 10 10 6 0 10 -4 10
-10z m-3752 -7 c-10 -2 -28 -2 -40 0 -13 2 -5 4 17 4 22 1 32 -1 23 -4z
m-1361 -9 c-3 -3 -12 -4 -19 -1 -8 3 -5 6 6 6 11 1 17 -2 13 -5z m4796 -1
c-13 -2 -33 -2 -45 0 -13 2 -3 4 22 4 25 0 35 -2 23 -4z m-654 -14 c-18 -11
-39 -11 -39 0 0 5 12 9 26 9 18 0 22 -3 13 -9z m-4519 -19 c0 -5 -17 -9 -37
-9 -38 1 -38 1 -8 9 43 11 45 11 45 0z m645 -4 c11 -2 -26 -4 -83 -5 -57 0
-101 2 -98 7 4 7 134 6 181 -2z m4175 -15 c24 -7 23 -8 -10 -13 -38 -6 -60 -1
-60 13 0 10 34 10 70 0z m-82 -13 c-6 -17 -58 -23 -72 -8 -8 10 -3 11 22 8 17
-3 32 -1 32 4 0 4 5 8 11 8 6 0 9 -6 7 -12z m-4200 -5 c-21 -2 -57 -2 -80 0
-24 2 -7 4 37 4 44 0 63 -2 43 -4z m267 -3 c8 -13 -5 -13 -25 0 -13 8 -13 10
2 10 9 0 20 -4 23 -10z m113 3 c-16 -2 -40 -2 -55 0 -16 2 -3 4 27 4 30 0 43
-2 28 -4z m95 0 c-7 -2 -19 -2 -25 0 -7 3 -2 5 12 5 14 0 19 -2 13 -5z m840 0
c-13 -2 -35 -2 -50 0 -16 2 -5 4 22 4 28 0 40 -2 28 -4z m-1180 -10 c-13 -2
-35 -2 -50 0 -16 2 -5 4 22 4 28 0 40 -2 28 -4z m4162 -23 c-3 -5 -10 -10 -16
-10 -5 0 -9 5 -9 10 0 6 7 10 16 10 8 0 12 -4 9 -10z m-4838 -16 c-3 -3 -12
-4 -19 -1 -8 3 -5 6 6 6 11 1 17 -2 13 -5z m131 -1 c-21 -2 -57 -2 -80 0 -24
2 -7 4 37 4 44 0 63 -2 43 -4z m539 1 c-3 -3 -12 -4 -19 -1 -8 3 -5 6 6 6 11
1 17 -2 13 -5z m923 -14 c0 -5 -7 -10 -15 -10 -8 0 -15 5 -15 10 0 6 7 10 15
10 8 0 15 -4 15 -10z m2608 -7 c-10 -2 -26 -2 -35 0 -10 3 -2 5 17 5 19 0 27
-2 18 -5z m612 -3 c36 -2 39 -4 15 -7 -16 -3 -33 -10 -37 -16 -5 -8 -18 -7
-46 1 -22 7 -50 12 -63 13 l-24 1 23 6 c23 7 42 7 132 2z m-3084 -8 c-7 -12
-64 -14 -71 -2 -4 6 10 10 35 10 23 0 39 -4 36 -8z m49 -2 c-27 -12 -35 -12
-35 0 0 6 12 10 28 9 24 0 25 -1 7 -9z m2895 -13 c9 -3 4 -6 -12 -6 -27 -1
-35 8 -21 22 4 4 9 3 12 -1 3 -5 13 -12 21 -15z m-3175 3 c3 -5 50 -11 103
-12 l97 -1 -95 -7 c-52 -4 -124 -7 -160 -7 -45 0 -52 2 -22 4 25 3 45 10 49
19 6 16 19 18 28 4z m3080 -10 c-27 -12 -35 -12 -35 0 0 6 12 10 28 9 24 0 25
-1 7 -9z m268 3 c-7 -2 -21 -2 -30 0 -10 3 -4 5 12 5 17 0 24 -2 18 -5z
m-3980 -10 c-7 -2 -19 -2 -25 0 -7 3 -2 5 12 5 14 0 19 -2 13 -5z m225 0 c-10
-2 -26 -2 -35 0 -10 3 -2 5 17 5 19 0 27 -2 18 -5z m-456 -15 c-9 -9 -15 -9
-24 0 -9 9 -7 12 12 12 19 0 21 -3 12 -12z m63 2 c3 -5 1 -10 -4 -10 -6 0 -11
5 -11 10 0 6 2 10 4 10 3 0 8 -4 11 -10z m1328 -1 c-8 -8 -16 -8 -30 0 -16 9
-14 10 12 11 21 0 26 -3 18 -11z m-1688 -9 c4 -6 -7 -10 -27 -10 -25 0 -29 3
-18 10 19 13 37 13 45 0z m441 3 c-21 -3 -26 -7 -16 -13 21 -13 -52 -24 -114
-17 -28 3 -60 1 -70 -5 -14 -8 -17 -7 -14 3 3 10 24 14 64 15 110 3 115 4 109
14 -4 6 9 9 32 9 33 -2 34 -3 9 -6z m964 -9 c0 -2 -9 -4 -20 -4 -11 0 -20 4
-20 9 0 5 9 7 20 4 11 -3 20 -7 20 -9z m2987 10 c-3 -3 -12 -4 -19 -1 -8 3 -5
6 6 6 11 1 17 -2 13 -5z m166 -1 c-7 -2 -19 -2 -25 0 -7 3 -2 5 12 5 14 0 19
-2 13 -5z m-4640 -10 c-13 -2 -35 -2 -50 0 -16 2 -5 4 22 4 28 0 40 -2 28 -4z
m238 -7 c-9 -10 -21 -12 -49 -6 -20 5 -50 10 -67 13 -16 2 5 5 49 6 66 1 77
-1 67 -13z m467 -3 c-10 -2 -26 -2 -35 0 -10 3 -2 5 17 5 19 0 27 -2 18 -5z
m-645 -10 c-7 -2 -19 -2 -25 0 -7 3 -2 5 12 5 14 0 19 -2 13 -5z m504 1 c-3
-3 -12 -4 -19 -1 -8 3 -5 6 6 6 11 1 17 -2 13 -5z m743 -6 c0 -5 -21 -8 -47
-8 -35 0 -44 3 -33 10 17 11 80 9 80 -2z m2685 2 c-3 -5 -12 -7 -20 -3 -21 7
-19 13 6 13 11 0 18 -4 14 -10z m1038 3 c-7 -2 -21 -2 -30 0 -10 3 -4 5 12 5
17 0 24 -2 18 -5z m-4758 -13 c3 -5 -1 -10 -9 -10 -9 0 -16 5 -16 10 0 6 4 10
9 10 6 0 13 -4 16 -10z m1098 3 c-7 -2 -21 -2 -30 0 -10 3 -4 5 12 5 17 0 24
-2 18 -5z m2570 0 c-7 -2 -19 -2 -25 0 -7 3 -2 5 12 5 14 0 19 -2 13 -5z
m-2303 -13 c0 -5 -17 -10 -37 -9 -31 0 -34 2 -18 9 28 12 55 12 55 0z m2990 0
c-8 -5 -24 -10 -35 -10 -17 0 -17 2 -5 10 8 5 24 10 35 10 17 0 17 -2 5 -10z
m-4391 -5 c-7 -7 -219 -8 -226 -1 -4 3 47 6 112 6 65 0 116 -2 114 -5z m4008
-1 c-3 -3 -12 -4 -19 -1 -8 3 -5 6 6 6 11 1 17 -2 13 -5z m-4133 -33 c7 -10
-150 -22 -173 -13 -9 4 20 10 64 13 44 3 85 6 92 7 6 1 14 -2 17 -7z m4473 3
c-3 -3 -12 -4 -19 -1 -8 3 -5 6 6 6 11 1 17 -2 13 -5z m-4357 -14 c-20 -13
-60 -13 -60 0 0 6 17 10 38 10 27 0 33 -3 22 -10z m4403 -9 c-2 -7 14 -11 44
-11 97 0 32 -9 -117 -15 -149 -7 -203 -2 -90 9 79 7 130 17 136 28 8 12 30 3
27 -11z m555 12 c-10 -2 -26 -2 -35 0 -10 3 -2 5 17 5 19 0 27 -2 18 -5z
m-3277 -12 c-8 -5 -20 -7 -28 -4 -21 8 -15 13 15 13 20 0 23 -3 13 -9z m-330
-19 c-7 -2 -18 1 -23 6 -8 8 -4 9 13 5 13 -4 18 -8 10 -11z m3533 -1 c80 -1
65 -11 -25 -17 -85 -5 -148 4 -114 16 11 4 34 6 50 5 17 -2 57 -3 89 -4z
m-3036 -20 c7 -4 -24 -6 -70 -4 -111 6 -121 11 -23 12 44 0 86 -3 93 -8z
m-821 -7 c-3 -3 -12 -4 -19 -1 -8 3 -5 6 6 6 11 1 17 -2 13 -5z m381 -1 c-16
-2 -40 -2 -55 0 -16 2 -3 4 27 4 30 0 43 -2 28 -4z m489 1 c-3 -3 -12 -4 -19
-1 -8 3 -5 6 6 6 11 1 17 -2 13 -5z m2293 -4 c0 -5 -5 -10 -11 -10 -5 0 -7 5
-4 10 3 6 8 10 11 10 2 0 4 -4 4 -10z m-817 -7 c-7 -2 -19 -2 -25 0 -7 3 -2 5
12 5 14 0 19 -2 13 -5z m257 -13 c9 -17 8 -20 -12 -20 -13 0 -30 5 -38 10 -12
8 -10 10 8 10 13 0 20 4 17 10 -3 6 -2 10 4 10 6 0 15 -9 21 -20z m267 14 c-3
-3 -12 -4 -19 -1 -8 3 -5 6 6 6 11 1 17 -2 13 -5z m226 -1 c-7 -2 -21 -2 -30
0 -10 3 -4 5 12 5 17 0 24 -2 18 -5z m555 -30 c-10 -2 -26 -2 -35 0 -10 3 -2
5 17 5 19 0 27 -2 18 -5z m-4580 -10 c-10 -2 -26 -2 -35 0 -10 3 -2 5 17 5 19
0 27 -2 18 -5z m2265 0 c-7 -2 -19 -2 -25 0 -7 3 -2 5 12 5 14 0 19 -2 13 -5z
m-1898 -13 c3 -6 -4 -10 -17 -10 -18 0 -20 2 -8 10 19 12 18 12 25 0z m3418
-7 c-7 -2 -19 -2 -25 0 -7 3 -2 5 12 5 14 0 19 -2 13 -5z m-963 -11 c0 -10
-126 -9 -136 1 -4 4 25 7 64 7 40 0 72 -4 72 -8z m-233 -8 c-3 -3 -12 -4 -19
-1 -8 3 -5 6 6 6 11 1 17 -2 13 -5z m396 -1 c-7 -2 -21 -2 -30 0 -10 3 -4 5
12 5 17 0 24 -2 18 -5z m867 -9 c0 -2 -21 -3 -47 -3 -41 1 -44 2 -18 8 28 7
65 4 65 -5z m-1167 -4 c123 1 167 -4 167 -18 0 -8 -328 -4 -379 4 -53 9 -16
25 39 18 25 -3 103 -5 173 -4z m1674 -5 c0 -11 -11 -15 -38 -15 -20 0 -44 -3
-53 -6 -9 -3 -16 -1 -16 5 0 6 16 11 35 11 19 0 35 5 35 10 0 6 8 10 18 10 10
0 19 -7 19 -15z m-4524 -2 c-13 -2 -33 -2 -45 0 -13 2 -3 4 22 4 25 0 35 -2
23 -4z m3105 0 c-10 -2 -26 -2 -35 0 -10 3 -2 5 17 5 19 0 27 -2 18 -5z
m-2900 -10 c-16 -2 -40 -2 -55 0 -16 2 -3 4 27 4 30 0 43 -2 28 -4z m1406 -5
c-3 -4 -40 -8 -82 -7 -50 0 -70 3 -57 9 26 10 146 9 139 -2z m2629 5 c-13 -2
-35 -2 -50 0 -16 2 -5 4 22 4 28 0 40 -2 28 -4z m134 -9 c-3 -3 -12 -4 -19 -1
-8 3 -5 6 6 6 11 1 17 -2 13 -5z m-2570 -10 c-3 -3 -12 -4 -19 -1 -8 3 -5 6 6
6 11 1 17 -2 13 -5z m2980 0 c-3 -3 -12 -4 -19 -1 -8 3 -5 6 6 6 11 1 17 -2
13 -5z m-2920 -10 c-3 -3 -12 -4 -19 -1 -8 3 -5 6 6 6 11 1 17 -2 13 -5z
m-572 -14 c-3 -5 -12 -10 -18 -10 -7 0 -6 4 3 10 19 12 23 12 15 0z m1665 0
c-8 -5 -26 -10 -40 -10 -20 0 -22 2 -10 10 8 5 26 10 40 10 20 0 22 -2 10 -10z
m78 3 c-10 -2 -26 -2 -35 0 -10 3 -2 5 17 5 19 0 27 -2 18 -5z m319 -29 c-3
-3 -12 -4 -19 -1 -8 3 -5 6 6 6 11 1 17 -2 13 -5z m151 -1 c-16 -2 -40 -2 -55
0 -16 2 -3 4 27 4 30 0 43 -2 28 -4z m80 0 c-10 -2 -26 -2 -35 0 -10 3 -2 5
17 5 19 0 27 -2 18 -5z m129 1 c-3 -3 -12 -4 -19 -1 -8 3 -5 6 6 6 11 1 17 -2
13 -5z m106 -1 c-7 -2 -19 -2 -25 0 -7 3 -2 5 12 5 14 0 19 -2 13 -5z m1047
-5 c0 -4 -114 -7 -252 -6 -139 1 -224 4 -188 7 100 10 440 9 440 -1z m-4473
-4 c-3 -3 -12 -4 -19 -1 -8 3 -5 6 6 6 11 1 17 -2 13 -5z m136 -1 c-7 -2 -19
-2 -25 0 -7 3 -2 5 12 5 14 0 19 -2 13 -5z m54 1 c-3 -3 -12 -4 -19 -1 -8 3
-5 6 6 6 11 1 17 -2 13 -5z m391 -1 c-21 -2 -55 -2 -75 0 -21 2 -4 4 37 4 41
0 58 -2 38 -4z m3335 0 c-24 -2 -62 -2 -85 0 -24 2 -5 4 42 4 47 0 66 -2 43
-4z m-263 -13 c-14 -4 -32 -8 -40 -9 -13 -1 -13 0 0 9 8 5 26 9 40 9 l25 -1
-25 -8z m-2717 -7 c-7 -2 -21 -2 -30 0 -10 3 -4 5 12 5 17 0 24 -2 18 -5z
m1300 0 c-13 -2 -33 -2 -45 0 -13 2 -3 4 22 4 25 0 35 -2 23 -4z m1284 1 c-3
-3 -12 -4 -19 -1 -8 3 -5 6 6 6 11 1 17 -2 13 -5z m-3477 -12 c0 -5 -26 -7
-57 -5 -84 6 -88 11 -10 12 37 1 67 -3 67 -7z m1707 2 c-3 -3 -12 -4 -19 -1
-8 3 -5 6 6 6 11 1 17 -2 13 -5z m1256 -1 c-7 -2 -19 -2 -25 0 -7 3 -2 5 12 5
14 0 19 -2 13 -5z m105 0 c-10 -2 -28 -2 -40 0 -13 2 -5 4 17 4 22 1 32 -1 23
-4z m829 1 c-3 -3 -12 -4 -19 -1 -8 3 -5 6 6 6 11 1 17 -2 13 -5z m-3822 -14
c3 -5 1 -10 -4 -10 -6 0 -11 5 -11 10 0 6 2 10 4 10 3 0 8 -4 11 -10z m1768 3
c-7 -2 -21 -2 -30 0 -10 3 -4 5 12 5 17 0 24 -2 18 -5z m1484 -15 c-37 -6 -63
-5 -75 1 -12 8 3 10 58 9 l75 0 -58 -10z m-2384 -5 c-7 -2 -19 -2 -25 0 -7 3
-2 5 12 5 14 0 19 -2 13 -5z m1777 -3 c0 -5 -5 -10 -11 -10 -5 0 -7 5 -4 10 3
6 8 10 11 10 2 0 4 -4 4 -10z m1450 -11 c8 -1 -5 -5 -29 -10 -25 -5 -47 -6
-50 -3 -10 10 24 24 44 19 11 -2 27 -5 35 -6z m-3265 -9 c-3 -5 -10 -10 -16
-10 -5 0 -9 5 -9 10 0 6 7 10 16 10 8 0 12 -4 9 -10z m624 -6 c8 -7 -134 -2
-179 6 -31 6 -10 7 65 3 61 -3 112 -7 114 -9z m-1179 -13 c0 -5 -11 -8 -25 -8
-14 0 -25 3 -25 8 0 5 11 9 25 9 14 0 25 -4 25 -9z m2150 5 c0 -3 -4 -8 -10
-11 -5 -3 -10 -1 -10 4 0 6 5 11 10 11 6 0 10 -2 10 -4z m55 -6 c-3 -5 -15
-10 -26 -10 -10 0 -19 5 -19 10 0 6 12 10 26 10 14 0 23 -4 19 -10z m155 0
c-20 -13 -77 -13 -85 0 -4 6 14 10 47 10 38 0 49 -3 38 -10z m63 3 c-7 -2 -21
-2 -30 0 -10 3 -4 5 12 5 17 0 24 -2 18 -5z m-2511 -14 c-14 -5 -30 -5 -40 0
-12 7 -5 9 24 9 33 0 36 -2 16 -9z m161 4 c-7 -2 -19 -2 -25 0 -7 3 -2 5 12 5
14 0 19 -2 13 -5z m1687 0 c0 -5 -15 -9 -32 -9 -18 -1 -46 -5 -63 -9 -20 -5
-27 -4 -20 3 18 18 115 31 115 15z m178 0 c-16 -2 -40 -2 -55 0 -16 2 -3 4 27
4 30 0 43 -2 28 -4z m69 1 c-3 -3 -12 -4 -19 -1 -8 3 -5 6 6 6 11 1 17 -2 13
-5z m890 -10 c-3 -3 -12 -4 -19 -1 -8 3 -5 6 6 6 11 1 17 -2 13 -5z m-1882
-14 c4 -6 -11 -10 -39 -10 -25 0 -48 5 -51 10 -4 6 11 10 39 10 25 0 48 -4 51
-10z m368 3 c-7 -2 -19 -2 -25 0 -7 3 -2 5 12 5 14 0 19 -2 13 -5z m200 0
c-24 -2 -62 -2 -85 0 -24 2 -5 4 42 4 47 0 66 -2 43 -4z m-810 -10 c-24 -2
-62 -2 -85 0 -24 2 -5 4 42 4 47 0 66 -2 43 -4z m2383 -1 c-5 -8 -66 -4 -66 4
0 2 16 4 36 4 19 0 33 -4 30 -8z m-1673 -19 c-7 -2 -21 -2 -30 0 -10 3 -4 5
12 5 17 0 24 -2 18 -5z m1085 0 c-10 -2 -26 -2 -35 0 -10 3 -2 5 17 5 19 0 27
-2 18 -5z m95 0 c-7 -2 -19 -2 -25 0 -7 3 -2 5 12 5 14 0 19 -2 13 -5z m-420
-10 c-7 -2 -19 -2 -25 0 -7 3 -2 5 12 5 14 0 19 -2 13 -5z m-2238 -13 c17 -2
1 -6 -35 -9 -70 -7 -132 -3 -126 8 4 6 100 7 161 1z m673 3 c-10 -2 -26 -2
-35 0 -10 3 -2 5 17 5 19 0 27 -2 18 -5z m732 -9 c0 -2 -24 -4 -52 -3 -38 1
-46 3 -28 8 24 7 80 3 80 -5z m-1663 0 c-3 -3 -12 -4 -19 -1 -8 3 -5 6 6 6 11
1 17 -2 13 -5z m1126 -11 c-7 -2 -19 -2 -25 0 -7 3 -2 5 12 5 14 0 19 -2 13
-5z m964 1 c-3 -3 -12 -4 -19 -1 -8 3 -5 6 6 6 11 1 17 -2 13 -5z m-570 -20
c-3 -3 -12 -4 -19 -1 -8 3 -5 6 6 6 11 1 17 -2 13 -5z m1313 -24 c0 -5 -17
-10 -37 -9 -31 0 -34 2 -18 9 28 12 55 12 55 0z m-2062 -17 c-10 -2 -26 -2
-35 0 -10 3 -2 5 17 5 19 0 27 -2 18 -5z m707 -3 c15 -6 8 -9 -28 -9 -30 -1
-46 3 -42 9 7 12 42 12 70 0z m1910 -9 c10 -17 -11 -21 -31 -6 -18 14 -18 14
3 15 12 0 24 -4 28 -9z m-930 -11 c-3 -5 -17 -10 -31 -10 -13 0 -24 5 -24 10
0 6 14 10 31 10 17 0 28 -4 24 -10z m614 0 c-10 -6 -34 -6 -60 -1 l-44 9 60 1
c42 0 55 -2 44 -9z m364 3 c-7 -2 -19 -2 -25 0 -7 3 -2 5 12 5 14 0 19 -2 13
-5z m-93 -13 c0 -5 -11 -10 -25 -10 -14 0 -25 5 -25 10 0 6 11 10 25 10 14 0
25 -4 25 -10z m-990 -10 c22 -7 21 -8 -12 -9 -21 -1 -38 4 -38 9 0 11 14 11
50 0z m867 4 c-3 -3 -12 -4 -19 -1 -8 3 -5 6 6 6 11 1 17 -2 13 -5z m-2682
-14 c4 -6 -17 -9 -57 -9 -58 2 -60 2 -23 9 61 11 73 11 80 0z m1005 0 c0 -6
-23 -9 -52 -8 l-53 1 45 7 c25 4 48 8 53 8 4 1 7 -2 7 -8z m-187 -7 c-7 -2
-21 -2 -30 0 -10 3 -4 5 12 5 17 0 24 -2 18 -5z m1592 -13 c3 -5 1 -10 -4 -10
-6 0 -11 5 -11 10 0 6 2 10 4 10 3 0 8 -4 11 -10z m-1861 -24 c-4 -11 6 -16
43 -19 26 -2 -1 -4 -62 -4 -76 -1 -101 2 -80 8 17 4 46 12 65 17 19 6 36 10
37 11 1 1 0 -5 -3 -13z m134 3 c-18 -7 -33 -7 -45 0 -14 8 -9 10 27 10 42 -1
43 -1 18 -10z m-445 -6 c-7 -2 -19 -2 -25 0 -7 3 -2 5 12 5 14 0 19 -2 13 -5z
m1354 -39 c-3 -3 -12 -4 -19 -1 -8 3 -5 6 6 6 11 1 17 -2 13 -5z m201 -1 c-21
-2 -57 -2 -80 0 -24 2 -7 4 37 4 44 0 63 -2 43 -4z m569 -9 c-3 -3 -12 -4 -19
-1 -8 3 -5 6 6 6 11 1 17 -2 13 -5z m-1750 -10 c-3 -3 -12 -4 -19 -1 -8 3 -5
6 6 6 11 1 17 -2 13 -5z m490 0 c-3 -3 -12 -4 -19 -1 -8 3 -5 6 6 6 11 1 17
-2 13 -5z m630 -10 c-3 -3 -12 -4 -19 -1 -8 3 -5 6 6 6 11 1 17 -2 13 -5z
m255 -26 c-11 -11 -95 -1 -88 11 2 3 25 5 51 3 31 -3 43 -8 37 -14z m141 15
c-13 -2 -35 -2 -50 0 -16 2 -5 4 22 4 28 0 40 -2 28 -4z m-923 -26 c8 -3 -3
-4 -25 -2 -52 4 -54 5 -30 14 11 5 25 5 30 1 6 -4 17 -10 25 -13z m107 7 c-3
-3 -12 -4 -19 -1 -8 3 -5 6 6 6 11 1 17 -2 13 -5z m381 -1 c-15 -2 -42 -2 -60
0 -18 2 -6 4 27 4 33 0 48 -2 33 -4z m385 0 c-7 -2 -19 -2 -25 0 -7 3 -2 5 12
5 14 0 19 -2 13 -5z m-1285 -60 c-10 -2 -28 -2 -40 0 -13 2 -5 4 17 4 22 1 32
-1 23 -4z m260 0 c-21 -2 -57 -2 -80 0 -24 2 -7 4 37 4 44 0 63 -2 43 -4z
m380 0 c-10 -2 -26 -2 -35 0 -10 3 -2 5 17 5 19 0 27 -2 18 -5z"/>
<path d="M6530 6845 c-108 -14 -238 -39 -322 -62 l-58 -16 0 -57 0 -58 43 -6
c23 -3 70 -8 105 -12 l62 -7 0 -844 c0 -794 -1 -844 -17 -850 -10 -3 -53 -19
-95 -35 l-78 -29 0 -55 0 -54 390 0 390 0 0 55 c0 62 8 56 -120 100 l-65 23
-3 961 -2 961 -68 -1 c-37 -1 -110 -7 -162 -14z"/>
<path d="M3340 6744 c-14 -2 -52 -9 -85 -15 -432 -76 -715 -376 -766 -809 -15
-129 -7 -364 16 -473 78 -377 302 -601 690 -693 94 -22 357 -30 467 -15 135
20 319 71 437 121 l51 22 0 313 0 312 43 12 c23 7 61 24 85 38 l43 24 -3 57
-3 57 -380 0 -380 0 -3 -53 -3 -52 61 -29 c34 -16 93 -35 131 -42 l69 -12 0
-261 c0 -301 10 -273 -109 -308 -97 -28 -246 -27 -326 2 -188 71 -323 237
-391 480 -23 83 -27 119 -31 290 -4 155 -2 213 11 283 37 195 108 341 213 437
64 59 102 80 197 109 117 36 342 25 365 -18 5 -9 39 -99 77 -201 37 -102 72
-191 77 -198 7 -9 29 -12 66 -10 l56 3 12 54 c18 85 41 265 48 383 l7 107 -80
25 c-43 13 -126 32 -183 41 -100 15 -427 29 -479 19z"/>
<path d="M9761 6728 c-31 -37 -102 -127 -176 -223 -39 -49 -77 -99 -87 -110
-17 -21 -209 -264 -256 -325 -15 -19 -63 -80 -107 -135 -45 -55 -103 -129
-130 -165 -28 -36 -57 -74 -66 -85 -25 -30 -171 -214 -202 -256 -23 -31 -27
-46 -27 -102 l0 -67 415 0 415 0 0 -149 c0 -163 -1 -164 -61 -174 -20 -3 -73
-15 -118 -27 l-81 -22 0 -64 0 -64 433 0 434 0 -3 23 c-1 12 -3 40 -3 63 l-1
41 -77 26 c-43 14 -90 28 -105 31 l-28 6 0 155 0 155 170 0 171 0 -3 93 -3 92
-168 0 -167 0 0 653 0 652 -75 0 c-66 0 -78 -3 -94 -22z m-206 -535 c-4 -16
-10 -189 -14 -385 l-6 -357 -255 -5 c-140 -3 -273 -8 -295 -12 l-40 -6 26 24
c15 12 40 34 56 48 16 14 47 48 69 76 21 29 107 139 191 247 131 167 232 317
256 380 10 28 20 20 12 -10z"/>
<path d="M10870 6729 c-317 -67 -481 -288 -442 -596 28 -221 161 -361 517
-548 293 -154 371 -235 369 -386 -3 -149 -107 -254 -276 -278 -163 -23 -303
27 -322 114 -4 17 -28 105 -53 198 l-47 167 -62 0 -62 0 -16 -72 c-24 -104
-57 -301 -66 -388 -6 -61 -4 -78 8 -93 22 -25 210 -83 337 -102 149 -23 434
-16 545 13 136 37 218 81 296 162 155 160 191 453 79 646 -63 109 -226 244
-395 329 -251 125 -401 243 -433 339 -27 79 -22 147 13 205 57 92 143 127 293
118 50 -3 113 -13 139 -22 53 -19 47 -7 126 -245 l49 -145 61 -3 c67 -3 62 -9
81 83 29 141 48 278 53 375 l2 55 -49 18 c-188 70 -548 97 -745 56z"/>
<path d="M12320 6498 c-78 -22 -216 -71 -227 -80 -9 -7 -13 -45 -13 -123 l0
-112 -57 -17 c-32 -9 -80 -29 -108 -44 l-50 -27 -3 -57 -3 -58 111 0 110 0 0
-442 c0 -578 7 -626 100 -719 69 -69 130 -89 271 -89 113 0 225 25 333 74 134
61 149 80 129 154 -5 20 -10 23 -32 18 -14 -3 -69 -11 -121 -17 -147 -18 -199
3 -242 97 -23 48 -23 57 -26 487 l-3 437 186 0 186 0 -3 88 -3 87 -182 3 -183
2 0 175 0 175 -67 -1 c-38 -1 -84 -5 -103 -11z"/>
<path d="M16160 6490 c-78 -21 -137 -43 -179 -64 l-31 -17 0 -113 0 -113 -60
-18 c-33 -10 -82 -31 -110 -47 l-50 -28 0 -55 0 -55 110 0 110 0 0 -459 c0
-369 3 -474 15 -531 25 -120 67 -180 158 -227 46 -24 65 -28 172 -31 143 -5
239 15 368 76 121 58 131 68 123 126 -7 47 -8 48 -39 42 -238 -44 -321 -24
-364 85 -15 39 -18 97 -21 482 l-3 437 179 0 c204 0 192 -6 192 90 0 96 12 90
-191 90 l-179 0 0 175 0 175 -67 -1 c-38 0 -97 -9 -133 -19z"/>
<path d="M4670 6160 c-91 -16 -192 -37 -225 -47 l-60 -19 -3 -56 -3 -56 91
-13 91 -12 -7 -386 c-8 -481 1 -559 85 -689 70 -107 172 -152 346 -152 122 0
193 19 277 73 77 49 178 180 178 232 0 8 4 15 9 15 4 0 11 -69 15 -152 4 -84
10 -156 12 -160 8 -13 96 -9 207 7 108 17 323 71 345 88 8 7 12 27 10 56 l-3
46 -45 6 c-25 4 -66 10 -92 14 l-48 6 0 615 0 614 -58 0 c-65 0 -338 -42 -422
-66 -110 -30 -110 -30 -110 -89 l0 -53 93 -13 92 -14 3 -358 2 -358 -30 -73
c-51 -123 -134 -199 -232 -212 -91 -13 -164 33 -198 123 -37 99 -44 247 -31
637 6 193 11 379 11 414 l0 62 -67 -1 c-38 0 -142 -13 -233 -29z"/>
<path d="M7400 6170 c-139 -21 -247 -45 -300 -66 -35 -14 -35 -15 -32 -68 4
-61 0 -58 120 -72 l62 -7 0 -789 c0 -622 -3 -789 -12 -792 -7 -2 -48 -17 -90
-32 -78 -29 -78 -29 -79 -66 -1 -21 -2 -46 -3 -55 -1 -17 25 -18 387 -21 l387
-2 0 57 0 58 -47 22 c-27 12 -67 26 -90 33 l-43 11 0 195 c0 183 1 196 18 189
106 -41 317 -48 446 -15 244 62 394 214 469 475 15 53 21 110 25 234 5 182 -6
275 -44 384 -78 225 -217 332 -449 344 -209 11 -345 -61 -432 -230 -18 -34
-33 -57 -33 -52 -1 6 -2 71 -3 145 l-2 135 -65 2 c-36 1 -121 -7 -190 -17z
m633 -231 c119 -58 171 -259 148 -572 -13 -175 -22 -218 -67 -314 -54 -114
-129 -163 -252 -163 -51 0 -164 31 -190 52 -10 9 -12 93 -10 407 l3 396 27 51
c62 118 127 161 245 163 34 1 67 -6 96 -20z"/>
<path d="M13610 6184 c-160 -21 -308 -61 -410 -112 -63 -32 -69 -47 -50 -131
15 -67 74 -215 101 -252 19 -26 26 -29 80 -29 l60 0 18 43 c10 23 40 99 67
168 47 122 50 127 85 138 20 6 72 11 116 11 66 0 86 -4 114 -23 45 -29 78 -99
91 -189 10 -76 8 -221 -4 -233 -4 -4 -60 -11 -125 -16 -323 -22 -514 -74 -615
-167 -57 -53 -85 -111 -99 -205 -25 -168 32 -302 163 -387 83 -55 163 -73 289
-68 91 3 112 7 171 35 89 42 151 101 191 182 l32 66 8 -102 c4 -56 13 -119 21
-140 13 -38 14 -38 71 -41 72 -4 207 19 361 61 l119 32 3 56 3 57 -93 14 -93
14 -8 49 c-4 28 -3 205 4 395 12 379 7 464 -35 555 -45 100 -130 168 -252 200
-58 16 -309 28 -384 19z m270 -888 c0 -145 -11 -194 -56 -253 -66 -87 -198
-116 -281 -61 -59 39 -83 95 -83 194 0 95 25 156 79 191 55 37 158 60 274 62
l67 1 0 -134z"/>
<path d="M14910 6169 c-121 -18 -260 -48 -314 -69 -24 -9 -26 -14 -26 -64 l0
-54 93 -13 92 -14 0 -509 0 -510 -55 -17 c-30 -9 -72 -24 -92 -33 -37 -16 -38
-17 -38 -71 l0 -55 403 0 c222 0 406 2 408 4 2 2 3 29 1 58 l-4 54 -46 18
c-26 10 -74 24 -107 30 l-60 12 -3 353 c-2 343 -2 354 19 396 26 51 51 82 100
118 l36 27 191 0 192 0 0 60 c0 67 -30 192 -62 259 l-21 43 -51 -5 c-127 -13
-280 -136 -363 -293 l-43 -79 0 188 0 187 -62 -1 c-35 -1 -119 -9 -188 -20z"/>
<path d="M6635 1305 c-5 -2 -22 -6 -37 -9 -34 -8 -37 -33 -5 -38 22 -3 22 -5
25 -179 l2 -176 -25 -11 c-48 -22 -27 -32 65 -32 89 0 110 9 70 30 -19 10 -20
21 -20 215 l0 205 -32 -1 c-18 0 -37 -2 -43 -4z"/>
<path d="M7470 1303 c-48 -9 -64 -43 -19 -43 18 0 19 -8 19 -179 0 -174 -1
-179 -22 -194 -13 -8 -20 -18 -17 -21 4 -4 44 -6 90 -4 l84 3 -22 23 c-20 19
-23 32 -23 101 0 64 4 83 21 105 29 37 64 35 78 -5 17 -49 14 -184 -4 -199
-28 -24 -15 -30 65 -30 63 0 80 3 80 14 0 8 -9 18 -20 21 -18 6 -20 15 -20 96
0 99 -15 150 -51 169 -31 17 -100 6 -121 -19 -9 -12 -19 -21 -22 -21 -3 0 -6
43 -6 95 l0 95 -32 -1 c-18 -1 -44 -4 -58 -6z"/>
<path d="M8695 1301 c-35 -7 -48 -41 -16 -41 20 0 21 -5 21 -180 0 -169 -1
-180 -20 -190 -39 -21 -19 -30 65 -30 87 0 101 7 64 31 -17 12 -20 22 -17 64
l3 50 47 -72 48 -73 55 0 c42 0 55 3 55 15 0 8 -4 15 -10 15 -13 0 -44 34 -87
97 l-37 53 35 36 c19 20 46 42 62 50 45 24 31 34 -48 34 -41 0 -75 -2 -75 -5
0 -3 5 -13 11 -23 9 -15 6 -26 -16 -60 -15 -23 -32 -42 -36 -42 -5 0 -9 63 -9
140 l0 140 -32 -1 c-18 -1 -46 -4 -63 -8z"/>
<path d="M11298 1303 c-20 -5 -32 -36 -23 -62 13 -41 95 -31 95 11 0 13 -4 28
-8 34 -9 14 -42 23 -64 17z"/>
<path d="M11466 1301 c-38 -8 -44 -28 -12 -41 l26 -10 0 -174 c0 -166 -1 -175
-20 -181 -11 -3 -20 -13 -20 -21 0 -11 17 -14 79 -14 82 0 107 11 71 30 -19
10 -20 20 -20 215 l0 205 -37 -1 c-21 -1 -51 -4 -67 -8z"/>
<path d="M9625 1283 c-87 -19 -159 -73 -197 -147 -27 -52 -35 -151 -18 -213
34 -120 178 -195 319 -167 24 5 31 12 31 29 0 21 -3 22 -37 14 -102 -24 -229
36 -262 124 -28 73 -3 197 52 255 86 93 279 86 345 -11 35 -53 44 -94 31 -154
-11 -56 -52 -103 -90 -103 -19 0 -20 4 -14 58 7 57 21 131 31 166 5 16 2 18
-32 14 -22 -3 -52 -1 -69 4 -86 24 -177 -50 -191 -156 -12 -85 13 -126 76
-126 30 0 45 7 67 30 32 35 43 37 43 11 0 -31 26 -44 79 -39 56 6 98 34 130
89 47 82 14 225 -64 278 -59 40 -162 60 -230 44z m95 -195 c0 -77 -49 -168
-91 -168 -41 0 -33 85 17 163 17 26 31 37 49 37 22 0 25 -5 25 -32z"/>
<path d="M8218 1228 c-20 -7 -28 -17 -28 -33 0 -13 -10 -29 -25 -39 -32 -21
-32 -36 -1 -36 24 0 24 -1 28 -116 3 -108 5 -117 27 -135 29 -23 72 -24 117
-3 42 20 39 40 -4 36 -43 -5 -52 18 -52 127 l0 91 40 0 c33 0 40 3 40 20 0 17
-7 20 -40 20 l-40 0 0 40 c0 44 -9 48 -62 28z"/>
<path d="M7368 1163 c-15 -14 -23 -15 -56 -5 -154 46 -277 -60 -178 -153 32
-30 33 -32 15 -43 -23 -14 -25 -45 -4 -62 13 -10 10 -15 -18 -34 -25 -17 -32
-29 -32 -55 0 -45 35 -70 106 -78 103 -10 192 34 192 95 0 54 -22 70 -145 102
-61 16 -65 40 -8 40 88 0 151 59 134 125 -5 22 -3 25 19 25 31 0 41 13 32 40
-8 24 -35 26 -57 3z m-100 -41 c7 -5 15 -24 18 -44 7 -40 -14 -68 -50 -68 -32
0 -46 19 -46 60 0 20 5 41 12 48 14 14 47 16 66 4z m20 -275 c15 -12 16 -49 0
-65 -17 -17 -68 -15 -90 5 -20 18 -23 45 -8 73 9 16 14 17 47 7 21 -6 44 -15
51 -20z"/>
<path d="M10273 1163 c-18 -12 -29 -13 -54 -4 -73 25 -176 2 -198 -45 -21 -47
-14 -81 23 -111 33 -26 34 -28 15 -41 -23 -16 -25 -45 -4 -62 13 -10 10 -15
-18 -34 -43 -29 -49 -75 -12 -104 55 -44 196 -40 245 7 65 61 34 128 -69 150
-87 19 -125 51 -60 51 46 0 106 20 126 43 12 13 17 33 16 62 -1 40 1 43 25 47
15 2 37 2 50 0 21 -3 22 -7 22 -112 0 -99 -2 -110 -20 -120 -38 -21 -20 -30
60 -30 62 0 80 3 80 14 0 8 -7 16 -15 20 -24 9 -21 176 4 204 21 25 44 28 60
8 16 -20 19 -208 3 -214 -7 -2 -12 -10 -12 -18 0 -11 17 -14 75 -14 76 0 92 9
55 32 -17 11 -20 24 -20 91 0 85 19 137 51 137 32 0 43 -30 47 -126 4 -80 2
-95 -12 -100 -9 -3 -16 -12 -16 -20 0 -11 18 -14 80 -14 80 0 98 9 60 30 -18
9 -20 21 -21 98 0 103 -15 152 -49 169 -41 21 -77 15 -115 -18 -25 -22 -35
-27 -35 -16 0 23 -40 47 -78 47 -24 0 -42 -9 -63 -29 l-29 -29 0 29 c0 33 -3
34 -81 19 -44 -9 -54 -8 -62 5 -10 19 -26 18 -54 -2z m-97 -41 c21 -14 26 -63
9 -88 -19 -29 -60 -32 -75 -5 -14 27 -13 88 3 94 19 8 51 8 63 -1z m13 -271
c27 -15 28 -57 2 -71 -63 -33 -123 20 -91 80 11 20 40 17 89 -9z"/>
<path d="M6316 1160 c-68 -22 -100 -78 -94 -166 4 -69 25 -101 82 -131 38 -20
132 -12 170 12 85 56 86 215 2 271 -29 19 -120 27 -160 14z m98 -46 c23 -22
29 -55 24 -130 -3 -50 -9 -70 -23 -80 -25 -19 -48 -18 -75 4 -38 31 -41 170
-4 207 20 19 58 19 78 -1z"/>
<path d="M6847 1149 c-98 -51 -90 -238 12 -284 48 -21 122 -15 160 13 35 26
40 47 10 38 -67 -20 -95 -18 -122 5 -14 13 -29 36 -33 52 l-6 27 96 0 96 0 0
35 c0 20 -7 51 -15 71 -26 62 -122 83 -198 43z m101 -27 c7 -5 15 -25 19 -45
l6 -37 -52 0 c-51 0 -51 0 -45 28 14 58 37 76 72 54z"/>
<path d="M7885 1157 c-36 -12 -40 -16 -38 -45 1 -33 18 -62 35 -62 5 0 17 18
25 40 13 33 21 40 44 40 33 0 49 -23 49 -69 0 -28 -3 -31 -32 -31 -100 -1
-165 -46 -154 -104 9 -43 36 -67 84 -73 36 -5 45 -2 72 25 29 30 30 30 30 7 0
-30 14 -34 74 -21 53 12 72 32 34 38 -22 3 -23 7 -26 114 -2 97 -5 114 -23
130 -25 23 -118 28 -174 11z m115 -187 c0 -31 -30 -70 -53 -70 -21 0 -37 22
-37 52 0 31 22 47 63 48 23 0 27 -4 27 -30z"/>
<path d="M8454 1161 c-28 -12 -54 -49 -54 -77 0 -32 34 -70 90 -100 27 -15 52
-36 56 -46 8 -25 -13 -48 -43 -48 -18 0 -28 9 -39 35 -18 43 -39 45 -53 4 -17
-49 -14 -57 27 -68 61 -18 116 -13 153 12 28 19 35 30 37 63 3 36 -1 45 -33
73 -20 17 -41 31 -48 31 -8 0 -26 13 -42 30 -23 24 -26 32 -15 45 7 8 23 15
36 15 18 0 28 -9 40 -37 15 -37 16 -37 30 -18 20 27 29 64 17 76 -13 13 -134
21 -159 10z"/>
<path d="M9116 1160 c-62 -20 -96 -73 -96 -152 0 -62 24 -108 72 -139 27 -16
45 -19 94 -16 35 3 72 12 88 22 85 56 86 215 2 271 -29 19 -120 27 -160 14z
m98 -46 c23 -22 29 -55 24 -130 -3 -50 -9 -70 -23 -80 -25 -19 -48 -18 -75 4
-38 31 -41 170 -4 207 20 19 58 19 78 -1z"/>
<path d="M10984 1161 c-17 -4 -36 -11 -43 -16 -22 -13 4 -95 30 -95 5 0 17 17
27 38 14 30 22 37 47 37 24 0 31 -5 38 -32 14 -48 4 -63 -43 -63 -86 0 -148
-50 -135 -109 15 -68 98 -92 154 -46 l30 26 3 -23 c3 -20 8 -23 43 -19 73 6
115 35 63 43 -22 3 -23 6 -20 88 2 47 -1 99 -6 115 -15 53 -96 77 -188 56z
m106 -189 c0 -30 -32 -72 -55 -72 -16 0 -35 30 -35 54 0 24 29 46 61 46 25 0
29 -4 29 -28z"/>
<path d="M11305 1163 c-11 -2 -30 -6 -42 -9 -28 -6 -30 -34 -3 -34 19 0 20 -7
20 -111 0 -102 -2 -111 -20 -116 -11 -3 -20 -12 -20 -19 0 -11 19 -14 85 -14
47 0 85 4 85 9 0 5 -11 16 -23 24 -22 14 -24 20 -19 92 2 41 1 100 -3 130 -7
57 -9 59 -60 48z"/>
<path d="M11907 1156 c-63 -23 -87 -66 -87 -152 0 -71 20 -109 72 -135 48 -24
111 -22 153 5 29 19 35 52 8 41 -59 -25 -104 -12 -129 37 -25 48 -13 150 19
170 7 4 22 8 34 8 17 0 23 -7 29 -34 6 -35 30 -54 46 -38 14 14 22 88 10 95
-23 15 -119 17 -155 3z"/>
<path d="M12205 1159 c-17 -4 -44 -22 -60 -39 -28 -29 -30 -36 -30 -110 0 -70
3 -81 25 -105 77 -84 222 -69 271 27 26 51 22 132 -10 177 -38 53 -117 74
-196 50z m105 -49 c17 -17 20 -33 20 -98 0 -91 -15 -122 -60 -122 -51 0 -83
84 -66 174 12 64 65 87 106 46z"/>
<path d="M12535 1165 c-5 -2 -27 -6 -47 -10 -40 -6 -54 -35 -18 -35 19 0 20
-7 20 -110 0 -99 -2 -110 -20 -120 -38 -21 -20 -30 60 -30 65 0 80 3 80 15 0
9 -7 18 -15 21 -24 10 -21 172 4 202 21 25 41 28 59 10 19 -19 16 -202 -3
-218 -28 -24 -15 -30 65 -30 63 0 80 3 80 14 0 8 -9 18 -20 21 -18 6 -20 15
-20 82 0 84 21 143 50 143 32 0 44 -29 48 -122 4 -76 2 -92 -12 -100 -9 -5
-16 -16 -16 -23 0 -12 17 -15 80 -15 80 0 98 9 60 30 -17 9 -20 21 -20 83 -1
154 -28 204 -105 194 -26 -4 -48 -15 -62 -31 -25 -30 -33 -32 -33 -12 0 22
-40 46 -76 46 -20 0 -44 -10 -63 -26 l-31 -26 0 26 c0 25 -14 31 -45 21z"/>
<path d="M11672 938 c-6 -6 -12 -25 -12 -40 0 -52 84 -61 97 -10 3 14 1 32 -4
41 -13 20 -64 26 -81 9z"/>
</g>
</svg>
